<?xml version="1.0" encoding="utf-8"?>
<!-- Generator: Adobe Illustrator 21.1.0, SVG Export Plug-In . SVG Version: 6.00 Build 0)  -->
<svg version="1.1" id="Layer_1" xmlns="http://www.w3.org/2000/svg" xmlns:xlink="http://www.w3.org/1999/xlink" x="0px" y="0px"
	 viewBox="0 0 381.9 349.4" style="enable-background:new 0 0 381.9 349.4;" xml:space="preserve">
<style type="text/css">
	.st0{fill:url(#SVGID_1_);}
	.st1{fill:#462C24;}
	.st2{fill:url(#SVGID_2_);}
	.st3{fill:#FDC900;}
	.st4{fill:#3F2E2A;}
	.st5{fill:#155A18;}
	.st6{fill:#2D9F5A;}
	.st7{fill:#FFFFFB;}
</style>
<g>
	<path class="st3" d="M238.7,20.6c-1,10.6,0.1,20-3,27.6c-6.3,15.7-14.6,30.6-22.7,45.5c-1.1,2.1-5.8,3.6-8.4,3.2
		c-2.2-0.4-5.3-3.9-5.5-6.2C197.1,67.3,204.6,35.4,238.7,20.6z"/>
	<path class="st3" d="M263.2,277.2c-11.6-6.1-18.7-13.3-22.7-24.5c-3.4-9.5-9.9-17.8-14.2-27.1c-1.7-3.5-1.2-8-1.7-12.1
		c4.1-0.2,9.3-2.2,12.2-0.4c9.2,5.6,19.1,11.4,25.8,19.5c4.5,5.5,5.5,14.9,5.7,22.6C268.4,262.1,265.2,269,263.2,277.2z"/>
	<path class="st3" d="M111.8,281.7c-0.1-22.5,3.5-44,21.6-60c3.5-3.1,11.3-4.6,15.3-2.8c3.3,1.5,5.9,9.1,5.5,13.6
		c-0.6,6.1-3.2,12.9-7.1,17.6c-10,11.8-21.1,22.6-31.8,33.8C114.1,283.2,113,282.5,111.8,281.7z"/>
	<path class="st3" d="M106.7,139.9c4.3,0.2,10,2.3,12.3,5.4c1.5,2.1-1,8.6-3.4,11.7c-14,18.3-34.2,22-56.5,23"/>
	<path class="st3" d="M66.7,224c-0.2-15,3.7-27.4,14.7-35.4c8.6-6.3,19-10.4,29-14.4c7.3-2.9,11.2,1.2,10.3,8.7
		c-0.5,3.9-1.4,8.5-3.9,11.3C103.3,208.7,86.4,217.5,66.7,224z"/>
	<path class="st3" d="M303.3,233.7c-17.2-7-34.6-13.9-51.7-21.2c-8.7-3.7-9.5-12.1-9.2-20c0.3-6.9,10.5-11.1,18.1-5.9
		c11.4,7.8,21.7,17.4,31.7,27c5.1,4.8,8.7,11.2,13,16.9C304.5,231.5,303.9,232.6,303.3,233.7z"/>
	<path class="st3" d="M154.6,88c1.2,3.5-2.7,9.5-5.8,13c-0.9,1.1-7.9-1.3-10.4-3.7c-12.7-12.4-17.8-28.7-21.9-45.3
		c-0.6-2.6-1-5.3-1.6-8.6c10.1-2.6,18.9,0,23.4,7.7"/>
	<path class="st3" d="M237.9,122.6c5.8-19.5,25-16.9,38.6-22.7c8.1-3.5,17.8,1.8,27.9,12.6C287.2,128,253.7,133.3,237.9,122.6z"/>
	<path class="st3" d="M82.4,243.5c5.7-19.1,15.9-33,33-41c5.5-2.6,12.3-7.5,17.1,0.5c4.1,6.9,0.8,12.9-4.7,18
		c-3.3,3-6.5,6.1-9.2,9.6C109.2,242.2,96.9,244.9,82.4,243.5z"/>
	<path class="st3" d="M176.3,296.7c1.3-19.6,2.2-39.2,4.2-58.7c0.4-3.6,6.5-9.9,7.9-9.3c4.4,1.7,9.8,5.2,11.4,9.3
		c7.3,18.8-2.1,44.8-20.1,59.2C178.6,297.1,177.4,296.9,176.3,296.7z"/>
	<path class="st3" d="M268.5,65.8c1.9,11.2-3.4,19.3-11.2,25c-8.2,6-17.5,10.5-26.8,14.9c-2.3,1.1-6.8,0-8.9-1.8
		c-1.6-1.3-1.9-5.7-1.1-8.1C226.4,78.5,241.9,60.3,268.5,65.8z"/>
	<path class="st3" d="M320,193.3c-23.4,5.3-43.6-0.8-62.5-12.9c-2.9-1.9-5.6-5.5-6.4-8.8c-0.5-1.9,3.2-7,4.8-7
		C280.7,165.4,302.6,173.1,320,193.3z"/>
	<path class="st3" d="M72.5,90.7c19.4,4.7,34.9,12.1,48,24c5.9,5.4,4.7,11.8-2.5,15.5c-14.4,7.3-21.4,5.7-30.2-7.6
		c-3.9-5.9-7.3-12.3-10.5-18.7C75.4,100.5,74.4,96.4,72.5,90.7z"/>
	<path class="st3" d="M246.5,140.3c15-14,54.5-12.8,72.4,2.1C297.2,155.5,253.9,154.2,246.5,140.3z"/>
	<path class="st3" d="M170.1,77.9c0-13.9,0-27.9,0-42.6c20,11.9,29.1,36.7,20,52.9c-1.6,2.9-6,7.3-7.3,6.7c-3.6-1.5-6.6-5-9-8.2
		c-1.9-2.5-2.7-6-3.9-9C169.9,77.7,170.1,77.9,170.1,77.9z"/>
	<path class="st3" d="M112.9,67.1c6.6,10.3,13.8,20.2,19.3,31c2,4,0,10.1-0.2,15.2c-4.7-1.9-10.6-2.6-13.9-5.9
		C107.1,96.1,110.3,81.7,112.9,67.1z"/>
	<path class="st3" d="M196.5,62.3c-11.2-14.7-18.1-30.3-7.6-48.5"/>
	<path class="st3" d="M48.3,137.5c10.5-3.1,20.8-7,31.5-9c3.3-0.6,7.6,4,11.4,6.3c-2.4,2.8-4.3,6.1-7.2,8.4
		c-11.9,9.6-23.1,1.4-34.6-1C49,140.7,48.6,139.1,48.3,137.5z"/>
	<path class="st3" d="M224.8,285.7c0-18.4,0-34.7,0-52C243.2,249.6,243.7,270.9,224.8,285.7z"/>
	<path class="st3" d="M105.8,97.6C88.2,95,86.8,79.4,79.6,64.8C95.2,72.5,110,77.2,105.8,97.6z"/>
</g>
<g>
	<path class="st3" d="M275.7,47.4c-4.1,9.8-5.9,19.1-11.1,25.5c-10.7,13.1-23.1,24.9-35.2,36.7c-1.7,1.7-6.6,1.8-9,0.6
		c-2-1-3.9-5.3-3.4-7.6C222.1,79.6,238.7,51.3,275.7,47.4z"/>
	<path class="st3" d="M222.9,299.6c-9.3-9.3-13.9-18.2-14.4-30.1c-0.5-10.1-4.1-20-5.5-30c-0.5-3.9,1.2-8,2-12.1
		c4,1,9.5,0.7,11.7,3.2c7.1,8.1,14.8,16.5,18.9,26.2c2.7,6.6,0.9,15.9-1.3,23.3C232.3,286.8,227.2,292.4,222.9,299.6z"/>
	<path class="st3" d="M77,259c6.6-21.6,16.4-41,38.4-50.9c4.3-1.9,12.1-1.1,15.4,1.8c2.8,2.4,3,10.4,1.2,14.6
		c-2.4,5.6-6.9,11.4-12,14.7c-13,8.3-26.9,15.3-40.4,22.9C78.7,261.1,77.9,260.1,77,259z"/>
	<path class="st3" d="M114.2,122.1c4.1,1.5,8.9,5.1,10.1,8.8c0.8,2.5-3.5,7.9-6.7,10.2c-18.8,13.3-39.2,10.9-60.8,5.1"/>
	<path class="st3" d="M51,190.5c4.3-14.4,11.7-25.1,24.5-29.4c10.1-3.4,21.2-4.3,31.9-5.2c7.8-0.6,10.3,4.4,7.2,11.4
		c-1.6,3.6-3.9,7.7-7.1,9.6C90.6,186.8,71.8,190.1,51,190.5z"/>
	<path class="st3" d="M274.1,270c-14.4-11.8-28.9-23.5-43.1-35.6c-7.2-6.1-5.5-14.4-2.9-21.8c2.3-6.5,13.3-7.5,19-0.3
		c8.5,10.9,15.5,23.1,22.3,35.2c3.4,6.1,5,13.3,7.3,20C275.9,268.3,275,269.1,274.1,270z"/>
	<path class="st3" d="M175.4,86.7c0.1,3.7-5.4,8.2-9.4,10.7c-1.2,0.7-7.1-3.5-8.8-6.7c-8.4-15.6-8.4-32.7-7.4-49.8
		c0.2-2.7,0.6-5.3,1-8.7c10.4,0.6,18.1,5.6,20.1,14.3"/>
	<path class="st3" d="M244.7,144.5c11.3-16.9,28.8-8.7,43.6-10.2c8.8-0.9,16.4,7,22.9,20.3C290.1,164.3,256.5,159.5,244.7,144.5z"/>
	<path class="st3" d="M60.2,213.8c11.1-16.5,25-26.8,43.7-29.4c6-0.8,14-3.6,16.2,5.5c1.9,7.8-3.1,12.6-9.8,15.8
		c-4,1.9-8,3.9-11.7,6.4C86.3,220.5,73.7,219.4,60.2,213.8z"/>
	<path class="st3" d="M134.1,292.5c7-18.3,13.7-36.8,21.4-54.8c1.4-3.3,9.1-7.5,10.3-6.6c3.7,2.9,7.8,7.9,8.1,12.3
		c1.4,20.1-15.3,42.2-36.7,50.5C136.2,293.5,135.1,293,134.1,292.5z"/>
	<path class="st3" d="M290.7,99.4c-1.5,11.3-9,17.4-18.2,20.6c-9.6,3.3-19.9,4.9-30,6.3c-2.5,0.4-6.5-2-8-4.3
		c-1.1-1.7-0.2-6,1.3-8.1C246.7,99,267,86.2,290.7,99.4z"/>
	<path class="st3" d="M302,236.4c-23.9-1.8-41.5-13.7-55.8-30.9c-2.2-2.7-3.8-7-3.5-10.4c0.1-2,5.1-5.8,6.7-5.2
		C272.8,198,291.4,212,302,236.4z"/>
	<path class="st3" d="M96.1,64.9c17.2,10.3,29.8,21.9,38.7,37.2c4.1,7,1,12.7-7,14c-15.9,2.7-22.1-0.9-26.6-16.2
		c-2-6.8-3.3-13.9-4.5-21C96,75.1,96.3,71,96.1,64.9z"/>
	<path class="st3" d="M247.6,163.9c18.5-8.9,55.8,4,68.5,23.5C291.5,193.5,250.5,179.4,247.6,163.9z"/>
	<path class="st3" d="M193.2,81.7c4.1-13.3,8.3-26.6,12.7-40.7c15.6,17.3,16.8,43.7,3.4,56.5c-2.4,2.3-7.9,5.2-9,4.3
		c-3-2.5-4.8-6.7-6.2-10.5c-1.1-3-0.8-6.5-1.1-9.8C193,81.4,193.2,81.7,193.2,81.7z"/>
	<path class="st3" d="M141.7,54.4c3.2,11.8,7.2,23.4,9.2,35.4c0.8,4.4-3,9.6-4.7,14.4c-3.9-3.2-9.4-5.6-11.5-9.8
		C127.5,80.4,135,67.5,141.7,54.4z"/>
	<path class="st3" d="M223,74.7c-6.3-17.4-8.3-34.3,7.1-48.5"/>
	<path class="st3" d="M59.1,102.5c10.9,0.1,22-0.5,32.7,0.8c3.3,0.4,6.1,6.1,9.1,9.4c-3.1,2-6,4.6-9.3,5.9
		c-14.2,5.6-22.5-5.6-32.7-11.2C58.9,105.7,59,104.1,59.1,102.5z"/>
	<path class="st3" d="M183.7,296.4c5.5-17.6,10.3-33.1,15.4-49.6C212,267.3,206.2,287.8,183.7,296.4z"/>
	<path class="st3" d="M126,81.4c-16.1-7.7-12.8-23-15.3-39.1C123.3,54.3,136,63.2,126,81.4z"/>
</g>
</svg>
