<?xml version="1.0" encoding="utf-8"?>
<!-- Generator: Adobe Illustrator 21.1.0, SVG Export Plug-In . SVG Version: 6.00 Build 0)  -->
<svg version="1.1" id="Layer_1" xmlns="http://www.w3.org/2000/svg" xmlns:xlink="http://www.w3.org/1999/xlink" x="0px" y="0px"
	 viewBox="0 0 252.8 224.2" style="enable-background:new 0 0 252.8 224.2;" xml:space="preserve">
<style type="text/css">
	.st0{fill:url(#SVGID_1_);}
	.st1{fill:#462C24;}
	.st2{fill:url(#SVGID_2_);}
	.st3{fill:#FDC900;}
	.st4{fill:#3F2E2A;}
	.st5{fill:#155A18;}
	.st6{fill:#2D9F5A;}
	.st7{fill:#FFFFFB;}
</style>
<path class="st6" d="M107.4,68.7c-0.4-2.5-0.8-4.7-1.1-6.9c2.4,0.3,5.4-0.2,7,1.1c5.4,4.3,10,6.7,17.3,2.8c11.2-6,23-6.7,33.7,1.9
	c12.7,10.2,15.8,24.4,12.3,38.9c-4.2,17.4-11.1,34.2-17,51.2c-1.9,5.5-5.8,6.5-10.6,3.8c-3.3-1.8-7-3.7-9.1-6.5
	c-11.1-14.9-27.3-22.5-43.1-30.5c-0.9-0.5-1.9-0.8-2.7-1.4c-8.7-5.5-21-8.4-18.9-22.3C77.3,86.2,85.5,75.8,99.9,71
	C102.5,70.1,105.1,69.4,107.4,68.7z M146.2,88.2c-7.8-17.3-14.6-15-34.6-12.5c-8.7,1.1-11.2,8.4-12,17.6
	c15.5-20.2,14.9-16.1,27.7,1.6c1,1.4,1.8,2.9,2.6,4.4c5.7,11.5,11.3,23.1,17,34.6c-0.8-9.8-3-19.3-6.5-28.2
	c-3.6-9-8.5-17.4-13.5-27.4C134,82,140.1,85.1,146.2,88.2z"/>
</svg>
