<?xml version="1.0" encoding="utf-8"?>
<!-- Generator: Adobe Illustrator 21.1.0, SVG Export Plug-In . SVG Version: 6.00 Build 0)  -->
<svg version="1.1" id="Layer_1" xmlns="http://www.w3.org/2000/svg" xmlns:xlink="http://www.w3.org/1999/xlink" x="0px" y="0px"
	 viewBox="0 0 252.8 224.2" style="enable-background:new 0 0 252.8 224.2;" xml:space="preserve">
<style type="text/css">
	.st0{fill:url(#SVGID_1_);}
	.st1{fill:#462C24;}
	.st2{fill:url(#SVGID_2_);}
	.st3{fill:#FDC900;}
	.st4{fill:#3F2E2A;}
	.st5{fill:#155A18;}
	.st6{fill:#2D9F5A;}
	.st7{fill:#FFFFFB;}
</style>
<path class="st6" d="M148.6,117.2c2.5-1.2,4.7-2.2,7.8-3.7c-0.2,3.7-0.4,6.4-0.6,10.1c5.9-7.2,11.1-13.7,16.4-20.3
	c14.9,14.2,18.1,27.2,11.9,43.1c-4.1,10.5-11,14.3-21.8,11c-7.5-2.3-14.7-5.4-22.1-8.2c-25.6-9.7-50.2-8.7-73.7,6.2
	c-0.8,0.5-1.8,0.5-5.1,1.4C72,133.1,80.8,110.3,92,88.8c12.1-23.2,45.4-23.1,60.8-14.2c2,1.1,3.3,5.6,2.9,8.2
	C153.8,93.8,151.2,104.7,148.6,117.2z M150.9,95.5c-17.9-7.6-50.1,9.5-54,28.3C111.7,107.9,128.7,96.9,150.9,95.5z M152,89.1
	c-8.1-11.7-27.5-13.2-35.3-4.4C127.6,86,139.7,87.5,152,89.1z"/>
</svg>
