<?xml version="1.0" encoding="utf-8"?>
<!-- Generator: Adobe Illustrator 21.1.0, SVG Export Plug-In . SVG Version: 6.00 Build 0)  -->
<svg version="1.1" id="Layer_1" xmlns="http://www.w3.org/2000/svg" xmlns:xlink="http://www.w3.org/1999/xlink" x="0px" y="0px"
	 viewBox="0 0 261.6 524.1" style="enable-background:new 0 0 261.6 524.1;" xml:space="preserve">
<style type="text/css">
	.st0{fill:url(#SVGID_1_);}
	.st1{fill:#462C24;}
	.st2{fill:url(#SVGID_2_);}
	.st3{fill:#FDC900;}
	.st4{fill:#3F2E2A;}
	.st5{fill:#155A18;}
	.st6{fill:#2D9F5A;}
	.st7{fill:#FFFFFB;}
</style>
<path class="st5" d="M141.2,154.1c-0.6,8.6-1.3,17.2-3.4,25.6c-1.3,5.1-3.1,10-3.8,15.2c-0.6,4.3-0.4,8.7-0.1,13.1
	c2.3,44.2,6,88.2,11.1,132.2c2.6,22.4,5.6,45,2.1,67.3c-0.7,4.4-1.6,8.9-1.1,13.4s2.9,9,7.1,10.7c3.5,1.5,7.6,0.7,11.3-0.2
	c1.2-0.3,2.4-0.6,3.2-1.4c1.5-1.6,0.9-4.2,0.2-6.3c-9.7-30.5-2.4-63.9-8-95.4c-2.3-13.1-6.9-25.8-8.4-39c-1.4-12.9,0.2-26-1.2-38.8
	c-1.4-12.3-5.4-24-7.4-36.2c-2.8-17.3-1.4-35.3,4.2-51.9c2.8-8.4,6.7-16.7,6.9-25.5c0.1-5.6-1.3-11.1-1.6-16.8
	c-0.6-10.9,2.8-22-0.1-32.6c-0.3-1-0.6-2-1.3-2.7c-8.4-8.2-6.1,22.1-6.3,23.8C143.5,123.7,142.3,138.9,141.2,154.1z"/>
</svg>
