<?xml version="1.0" encoding="utf-8"?>
<!-- Generator: Adobe Illustrator 21.1.0, SVG Export Plug-In . SVG Version: 6.00 Build 0)  -->
<svg version="1.1" id="Layer_1" xmlns="http://www.w3.org/2000/svg" xmlns:xlink="http://www.w3.org/1999/xlink" x="0px" y="0px"
	 viewBox="0 0 252.8 224.2" style="enable-background:new 0 0 252.8 224.2;" xml:space="preserve">
<style type="text/css">
	.st0{fill:url(#SVGID_1_);}
	.st1{fill:#462C24;}
	.st2{fill:url(#SVGID_2_);}
	.st3{fill:#FDC900;}
	.st4{fill:#3F2E2A;}
	.st5{fill:#155A18;}
	.st6{fill:#2D9F5A;}
	.st7{fill:#FFFFFB;}
</style>
<path class="st6" d="M167.7,93.4c3.8,0,6.2,0.1,8.5,0c30.7-1.8,41.6,11,35.3,41.3c-3.5,16.6-13.6,27.3-28.7,33.6
	c-10.4,4.3-21.2,7.9-31.8,11.6c-24.1,8.6-25.9,9.6-45,27.9c-2.6-10.5-5.4-20.1-7.4-29.8c-3.6-17-7.4-34-9.6-51.3
	c-1.1-8.2,0.4-17.2,2.5-25.3c6.5-25,25.8-34.3,49.7-23.9c7.4,3.2,14.1,8.2,21.4,12.6 M204.9,158.6 M178.8,128.8
	c0.5-17-9.1-29.8-26-35.6c-12.2-4.2-29,0.2-37.4,10.5c13.1-4.6,25.2-12.3,38.8-3.5c-28,39.8-30.6,44.9-29.6,52.4
	c9.2-12.2,19.3-26.6,30.4-40.1c6.1-7.5,10.5-6.7,15.9,1.4C173.9,118.2,175.9,123.2,178.8,128.8z"/>
</svg>
