<?xml version="1.0" encoding="utf-8"?>
<!-- Generator: Adobe Illustrator 21.1.0, SVG Export Plug-In . SVG Version: 6.00 Build 0)  -->
<svg version="1.1" id="Layer_1" xmlns="http://www.w3.org/2000/svg" xmlns:xlink="http://www.w3.org/1999/xlink" x="0px" y="0px"
	 viewBox="0 0 252.8 224.2" style="enable-background:new 0 0 252.8 224.2;" xml:space="preserve">
<style type="text/css">
	.st0{fill:url(#SVGID_1_);}
	.st1{fill:#462C24;}
	.st2{fill:url(#SVGID_2_);}
	.st3{fill:#FDC900;}
	.st4{fill:#3F2E2A;}
	.st5{fill:#155A18;}
	.st6{fill:#2D9F5A;}
	.st7{fill:#FFFFFB;}
</style>
<path class="st6" d="M151.5,178.3c-13.7-21.7-30-38.4-50-51.4c-5.4-3.5-10.1-8.2-14.3-13.1C72.2,96,75.5,74.9,94.7,61.5
	c5.9-4.1,8.1-0.2,11.7,3c7,6.2,14.3,12.2,22.1,17.4c5.1,3.4,9.8,1.4,12.3-4.5c3.6-8.1,7.7-16.1,10.7-24.4c2.7-7.5,7.3-8.9,13.3-5.3
	c6.5,3.8,12.4,8.6,20.2,14.2c-9.6,5.7-16.6,9.8-22.6,13.3c-5-2.6-8.9-4.6-12.8-6.6c-0.4,0.6-0.7,1.2-1.1,1.8c5,6.5,10,13,16.3,21.1
	c-0.3-4.9-0.5-8-0.7-11.2c0.4-0.4,0.7-1.2,1.3-1.4c22.9-8.8,24.7-7.5,25.6,17.3c0.8,21.9-7.4,40.7-19.9,57.8
	C165.2,162,158.7,169.4,151.5,178.3z M151.5,130.3c0.9-19.5-7.9-38.7-18.2-41.1C139.2,102.3,144.9,115.3,151.5,130.3z"/>
</svg>
