<?xml version="1.0" encoding="utf-8"?>
<!-- Generator: Adobe Illustrator 21.1.0, SVG Export Plug-In . SVG Version: 6.00 Build 0)  -->
<svg version="1.1" id="Layer_1" xmlns="http://www.w3.org/2000/svg" xmlns:xlink="http://www.w3.org/1999/xlink" x="0px" y="0px"
	 viewBox="0 0 790.3 337.7" style="enable-background:new 0 0 790.3 337.7;" xml:space="preserve">
<style type="text/css">
	.st0{fill:url(#SVGID_1_);}
	.st1{fill:#462C24;}
	.st2{fill:url(#SVGID_2_);}
	.st3{fill:#FDC900;}
	.st4{fill:#3F2E2A;}
	.st5{fill:#155A18;}
	.st6{fill:#2D9F5A;}
	.st7{fill:#FFFFFB;}
</style>
<linearGradient id="SVGID_1_" gradientUnits="userSpaceOnUse" x1="429.2972" y1="314.187" x2="429.2972" y2="66.6994">
	<stop  offset="0" style="stop-color:#FFFFFF"/>
	<stop  offset="0.1988" style="stop-color:#CBC4C2"/>
	<stop  offset="0.4024" style="stop-color:#9C8E8A"/>
	<stop  offset="0.5916" style="stop-color:#77645E"/>
	<stop  offset="0.7602" style="stop-color:#5C453E"/>
	<stop  offset="0.9021" style="stop-color:#4C332B"/>
	<stop  offset="1" style="stop-color:#462C24"/>
</linearGradient>
<rect x="193.8" y="66.7" class="st0" width="471" height="247.5"/>
<g>
	<g>
		<g>
			<path class="st1" d="M193.8,105.8c0,0.2,0,0.4,0,0.6C193.8,105.9,193.8,105.1,193.8,105.8z"/>
			<path class="st1" d="M193.8,106.3c0,0.4-0.1,0.6,0-0.6c0.2-1.9-0.2-4-0.1,1.7C193.7,107.5,193.8,107.2,193.8,106.3z"/>
			<path class="st1" d="M193.7,201.4l0,5C193.9,206.4,193.9,201.4,193.7,201.4z"/>
			<path class="st1" d="M224.4,65.8c0-0.2-2.5-0.4-2.5-0.1C221.9,66.1,223.6,65.7,224.4,65.8z"/>
			<path class="st1" d="M194,94.5c-0.1-0.8-0.1-0.9-0.3-1.2c0,1,0,1.5,0.1,1.3L194,94.5z"/>
			<path class="st1" d="M291.1,65.6c-1.2,0-2.5,0-2.5,0.1C288.6,66.1,291.1,65.8,291.1,65.6z"/>
			<path class="st1" d="M440.3,316.7c-2.1-0.2-3.4,0.3,0.4,0.3l0-0.3C440.5,316.7,440.3,316.7,440.3,316.7z"/>
			<path class="st1" d="M663.4,316.7c0.3-0.1-0.1-0.2-1.3-0.3C659,316.8,663.4,317,663.4,316.7z"/>
			<path class="st1" d="M575.5,66C580.1,66.5,575.5,65.5,575.5,66L575.5,66z"/>
			<path class="st1" d="M575.5,66C575.5,65.9,575.5,66,575.5,66L575.5,66z"/>
			<path class="st1" d="M644.7,66.1C644.7,66.1,644.7,66.1,644.7,66.1L644.7,66.1z"/>
			<path class="st1" d="M644.7,66.1C652.1,66.6,644.7,65.6,644.7,66.1L644.7,66.1z"/>
			<path class="st1" d="M618.3,66.1C618.3,66.1,618.3,66.1,618.3,66.1L618.3,66.1z"/>
			<path class="st1" d="M618.3,66.1C622.9,66.6,618.3,65.6,618.3,66.1L618.3,66.1z"/>
			<path class="st1" d="M604.4,66c-1.2,0-2.6,0-3.8,0C600.7,66.3,603.4,66.1,604.4,66z"/>
			<path class="st1" d="M664.8,116.9c0.1,0.8,0.1,0.9,0.3,1.2c0-1,0-1.5-0.1-1.3L664.8,116.9z"/>
			<path class="st1" d="M406.6,315.2l0-0.1c-0.7-0.1-1.5-0.1-2.5-0.1C404.5,315.2,404,315.2,406.6,315.2z"/>
			<path class="st1" d="M606.7,314.9c0.4-0.1,0.2-0.2-0.4-0.2C602.9,314.8,606.7,315.2,606.7,314.9z"/>
			<path class="st1" d="M615.8,66c-1.9,0-3,0-3.9,0.1C613,66.1,615.8,66.3,615.8,66z"/>
			<path class="st1" d="M611.5,66.1C611.5,66.1,611.5,66.1,611.5,66.1c0.2,0,0.3,0,0.4,0C611.7,66.1,611.5,66.1,611.5,66.1z"/>
			<path class="st1" d="M664.6,311.9c0-6.3-0.1-12.6-0.1-18.9c0-10.7-0.2-21.6,0-31.7c0.2-16.1,0.1-32.5,0.2-48.6
				c0-10.1,0.1-21.3,0.1-30.4c0-2.2-0.1-5.2,0-7.2c0.1-1.4,0.2,1,0.2,1c0.2,0,0.2-2.8,0.2-5.7c0-1.4,0-2.8-0.1-3.9
				c0-1.1-0.1-1.8-0.1-1.8c0,0.7-0.1,10.3-0.3,6.8c-0.2-4.9,0.3-9,0.3-13.4c0,1.4-0.3-0.1-0.3-0.9l0-6.3c0-3.8,0.1-5.5,0.3-8.8
				c0.3,0,0.4-3.1-0.1-3.8c-0.2-0.4-0.2-4.9-0.2-6.4c0-5.9-0.1-12.4,0-18.2c0-1.4,0.5-5.3,0.4-5.8c-0.3-1.9-0.5,0.9-0.5-3.6l0.5,0
				c-0.4,0,0.1-3.5-0.5-1.7c0.2-0.7,0.7-9.6,0.2-9.6c0-0.3,0,2.1,0.1,1.5c-0.1,1.9-0.3-2.5-0.3-2.8c0.1,0,0.1-3.8,0.1-4.1
				c0-7.1,0-14.2,0-21.3l-0.7,0c-0.2,0-0.6,0-0.9,0c1.2-0.1,1.8-0.1,1.5-0.2c-0.3,0-1.5-0.1-3.5-0.1l0,0.1l1.8,0.1
				c-0.5,0-1.2,0-1.8,0c-0.4,0-0.8,0-1.2,0c-0.8,0-1.3-0.1-1.4-0.1c-0.1-0.3-6.3-0.3-6.3-0.1c1,0,5.2,0.1,3.9,0.3
				c-1.4,0.2-6.6-0.2-6.4-0.3c-0.9,0.6-8.1,0.4-8.9-0.1c0,0-3.2,0.5-3.6,0.4c-2.5-0.8-3.2,0.1-6.4,0.1c0.3-0.2-0.2-0.5-3.8-0.5
				c-0.2,0.3,0.3,0.2,2.1,0.2c0.2,0-7,0.5-4.6-0.1c-3.8,0-1.4,0.2-2,0.4c-0.4,0.2-10.8-0.2-11-0.3c-0.9,0.1-1.7,0.2-3.3,0.2l0-0.3
				c-1.7,0-2.5,0.3-5.8,0.3c-2.3,0-5.1-0.3-6.1-0.3c-1.5,0-2.2,0.3-5.1,0.2c-2.5-0.1-1-0.1-1.8-0.3c-2-0.4-8.9-0.1-10.1,0.1
				c-2.4,0.5-9.5-0.4-10.4-0.3c-1.3,0.1-1.4,0.4-3.9,0.4c-0.8,0-5-0.3-5.1-0.3c-0.8,0.3,2.7,0.4-1.4,0.2c-2.5-0.1-6.3-0.1-8.9-0.1
				c1.7,0,3.6-0.1,5.4-0.1c-1.3,0-16-0.5-15.9-0.1c0.2,0,4.2,0,4.2,0c-0.8,0.2-5.1,0.4-7.2,0.3c-1.9-0.1,1.2-0.3,1-0.4
				c-0.7-0.3-4.1,0.2-3.8,0.2c-0.2,0-4.8-0.3-4.8-0.2c0,0.2,3.4,0.5-1.8,0.4c-3.4,0-0.1-0.4-1.9-0.5c-0.1,0-4.2,0-8.4,0.1
				c-4.2,0-8.3,0-8,0c-4.3,0.7-14,0-21.2,0c-4.5,0-7.9,0.2-12.3,0c-0.9,0-7.5-0.1-6.1,0.2c0.1,0,2.4,0.4,2.6,0.4
				c-1.7,0.1-4.6-0.4-6.1-0.5c-2.1-0.1-4.6-0.1-6.9-0.1c-1.5,0-19.1,0-21.4,0.1c0.5-0.1,1.1-0.4-1-0.1c-2.1,0-2.9,0-4.5-0.1
				c-2.6-0.2-7.1-0.2-9.9-0.1c-3.7,0.1-9.8,0.9-10.8,0c0.1,0.1-1.5,0.6-2.6,0.7c-1.4,0.1-0.8-0.5-1-0.6c-0.2,0-1.2-0.1-2.1-0.1
				c-0.5,0-0.9,0-1.3,0c-0.3,0-0.6,0-0.6,0c0-0.6-6.7,0.4-7.4,0.3c-2.9-0.5-9-0.2-14.6-0.4c-4.9-0.1-8,0.8-10.7,0.5
				c0,0-0.7-0.1-1.8-0.2c-1.1,0-2.6-0.1-4.2-0.2c-3.1-0.1-6.5-0.2-7.6-0.2c-2.7,0-11.7-0.2-11.6,0.3c-1.7,0-3.2-0.3-4.5-0.2
				c-1.5,0.1-3,0.3-4.3,0.5c-1-0.3-0.8-0.7-3.9-0.7c-0.5,0-9.9,0.3-6.5,0.5c-2.9-0.2-2.7-0.4-3.4,0.1c0.1-0.1-3.5-0.6-5.3-0.5
				c-1,0-5.1,0.4-6.3,0.3c-2.1-0.3,2.2-0.3-4-0.3c-1.9,0-4.3,0-5.8,0.1c-2.7,0.3-2.2-0.3-5,0c-2.4,0-0.3,0.6-2.5,0.6
				c-1.2,0-1.6-0.4-3.2-0.3c-0.3,0-3.1,0.3-3,0.4c-0.3-0.2-0.1-0.4-0.1-0.6c-0.9,0.2-3,0.6-5.3,0.6c1,0,4.3-1-3.5-0.7
				c-1.3,0-8.7,0.4-8.4,0.4c-0.3-0.1-0.5-0.2-0.4-0.3c-1.5,0.4-4.9-0.2-7.6-0.3c1.3,0.2,1.7,0.4,1.3,0.7c-2.2,0-0.3-0.4-2.8-0.4
				c-0.5,0-5.1,0-3.5,0c0-0.2-5.1-0.1-6.1-0.1c-3.2,0-0.8,0.2-1.5,0.4c-0.2,0.1-3.8-0.4-4.6-0.4c-1.5,0-3.3,0.9-2.6,0.9
				c-2.6,0-0.9-1.1-3.1-1.1c-0.8,0,1.4,0.4-0.3,0.5c-1,0.1-6.9,0.2-7.4,0c-0.5-0.2,1.5-0.5-2.2-0.5c1,0-4.7,0.2-3.8,0.2
				c5.6,0.2,1.8,0.4,0.2,0.5c0.1,0,0.2-0.1,0.1-0.2c-1.1-0.1-4.4,0.4-4.5,0.4c-0.6-0.4,1.4-0.6-3.6-0.8c-1.3,0-6-0.2-6,0.1
				c0,0-5.1,0.3-5.4,0.4c-1.9,0.1-2.3-0.5-4.7-0.4c-1.6,0-2.6,0.1-3.4,0.1c-0.7,0-1.3,0-2,0c-0.8,0-1.6,0-2.6,0
				c0,1.2-0.1,2.6-0.1,4.6c-0.2,2.7,0.2,4,0.3,5.9c0-0.4-0.3,5.7-0.3,7c0.2,3.1-0.1,3.9-0.1,5.9c0,0.7,0.3,0.4,0.3,0.4
				c0,0,0.1,2.8,0.1,2.9c0.1,3.8-0.1,6.5-0.1,9.7c0,4.9,0.4,10.7,0.4,15.1c0,0-0.7-1.7-0.7-1.7c-0.3,0.9-0.1,2.5,0.2,4
				c0.1,0.7,0.3,1.4,0.4,1.9c0.1,0.5,0.2,0.8,0.2,0.8c0,2.4-0.6,0.7-0.7,1c-0.1,0.3-0.1,6.6,0,7.6c0.2,1.3,0.5,7.1,0,7.7
				c0.2-0.1,0.2,0.7,0.4,1.2c0,2-0.2,0.4-0.3,1.7c-0.1,1.8-0.1,3.9-0.1,5.8c0,3.7-0.1,7.6,0.4,7.5c-0.1,0-0.3,1.1-0.3,1.2
				c0.2,0.3,0.4,0.3,0.6,1.3c0,2-0.4,2.7-0.5,2.5c0.2,1.7,0.1,3.5,0.2,6c0,1-0.4,1.9-0.4,3.8c0,2.9,0.5,5.2,0.2,7.9
				c-0.2,2.3,0.2,2,0.3,2.9c0.1,0.5-0.6,6.4-0.4,7.5c0.1,0.7,0.5,0.1,0.6,1.1c0,0,0,0.6-0.1,1.5c0,1-0.1,2.3-0.1,3.6
				c-0.1,2.7-0.1,5.5-0.1,6.1c0,4.3,0.5,4.8,0.5,7.5c-0.2-0.3-0.9,0.5-0.9,3.7c0,1,1.1,10.1,0.3,11.5c0.4,0.3,0.1,6.4-0.1,6.8
				c0.1-0.4,0.3-2.6,0.4-2.2c-0.2-0.4,0.1,6.2,0.3,6.4c-0.2,1.3-0.6,3-0.5,4.1c0,2.6-0.1,3.9-0.4,3.8c0,5,0.4,2.9,0.7,3.2
				c0.1,0.1,0.2,2.2,0.1,2.9c-0.1,0.6-0.6-1.2-0.6,1.4c0,1.5,0.4,1.9,0.3,3.4c0,0.6-0.2,1.1-0.3,1.6c0.1-0.9-0.2,6.2-0.2,6.5
				c0,0.1,0.3,0,0.3-0.1c0,3.7-0.3,3.7,0.2,7.2c0.1,0.9-0.9,2.7-0.3,5.4c-0.8-0.4-0.3,11.8,0.1,11.3c-0.1,0.1-0.4-0.6-0.4-0.4
				c0,1.6,0.1,1.9,0.2,3c0,0,0,0.2,0,0.6c0,0.4,0,0.9,0,1.6c0,1.3,0,3,0,4.7c0,3.4,0,6.7-0.1,6.2c0.1,0.3,0.6-1.3,0.6,1.9
				c0,2.1-0.5,1.4-0.6,1.3c0,1.7,1.1,3.7,0,6.3c-0.1,0.6-0.1,1.4-0.1,2.4c0,0.7,0,1.4,0,2.1c0,0.9,0,1.9,0.1,2.9c0,0.1,0,0.2,0,0.3
				c1.1-0.1,1.2-0.2,1.3-0.3c0.1-0.1,0.2-0.2,1-0.2c-0.2,0,0.2,0,1.1,0c0.6,0,1.5,0.1,2.3,0.1c1.4,0.1,2.8,0.1,2.6,0
				c0.3,0.1-0.8,0.1-2.1,0.1c-1.5,0-3.2,0-3.3,0c-1.3,0.1-0.9,0.1,0.5,0.2c0.8,0,2.2,0.1,3.7,0.1c2.7,0,5.6,0.1,5.7,0.1
				c9.6,0.3,1.6-0.6,5.3-0.7c1.1,0,7.6,0.4,8.5,0.5c4.6,0.5,3.7,0,5.4-0.2c0.6-0.1,9.7,1,9.7,0.1c0,0.5,10.2,0.2,11.3-0.2
				c2.8,0,0.1,0.4,1,0.5c4.2,0.2,10.3,0,14.9-0.2c3.8-0.1,2.4,0.1,4.7-0.2c0.8-0.1,2,0,2.9,0.1c0.5,0.1,0.9,0.1,1.2,0.2
				c0.3,0.1,0.5,0.1,0.5,0.1c1.3-0.9,7-0.2,11.5-0.1c4.7,0.1,5.9-0.3,10-0.3c2.6,0,3.1-0.1,6.3-0.1c0.9,0.1,2,0.3,2.7,0.4
				c2.3,0.2,2.4-0.5,4.9-0.5c-0.1,0.1,0,0.5,0.4,0.5c4-0.2,2.8-0.2,7.2,0c2.8,0,5,0.1,5-0.3c0,0.2,0.6,0.1,1.3,0.3
				c1.7-0.4,12.3-0.1,12.1,0c0.1-0.1-2.2-1,1.7-0.7c3.1,0.2-1.9,0.3,5,0.4c2.8,0,4.4,0.6,7.7,0.3c0-0.2-3.6-0.2-4.2-0.4
				c1.2,0.3,10.4-0.1,12.1-0.1c-4,0,4.8,1.1,2.2,0.1c2.7,0,3.2,0.6,5-0.1c0.5,0,2.6,0.7,3.6,0.3c1.4-0.5,0.2-0.2,3.5-0.4
				c2.4-0.1-0.8-0.7-0.9-0.8c-0.2-0.1,1-0.3-0.2-0.4c-1.2-0.1-2.4,0-2.4-0.2c2.6-0.3-3.5-0.6-5.8-0.4c-1.2,0.1-2.5,0.3-3,0.5
				c-1.2-0.7-3,0.4-3.8,0.6l-0.1-1.2c-1.9,0.4-3.8,0.8-7,0.4c1.2,0.1-1.5,0.9-3,1.1c-2.6,0,1.8-0.7-1.1-0.8c-0.5,0-1.9,0-3.2,0
				c-1.3,0-2.5,0-2.5,0c-0.6-0.2,1.9-0.4-2-0.5c-1.4-0.1-3.6-0.1-5.1,0c1.4,0,1.9,0.1,1.7,0.2c-2.5,0.2-4.2-0.2-4.2,0.3
				c0,0.3,0.5,0.2-1.2,0.3c-4.3,0.2-7.2,0.1-6.3-0.5c-0.1,0,2.4,0.4,3.4,0.4c0.5,0,0.9-0.1,1.1-0.2c0.3-0.1,0.5-0.2,0.5-0.2
				c-1.2,0-5.8-0.3-5.4-0.3c-1.6,0.2-2.2,0.4-5.4,0.3c-1.8-0.1-4.7-0.5-3.1,0.2c-1.3,0-2.1,0-2.5-0.1c-5.2,0.5,0.7,0.7,0.7,1.2
				c0,0-0.1,0-0.3,0c-0.2,0-0.5,0-0.9,0c-0.7,0-1.7,0-2.7-0.1c-2,0-4.2-0.1-4.6-0.1c1.1,0,4.2-0.4,4.2-0.5c0-0.4-0.3-0.2-2.2-0.2
				c-1.2,0,0.2-0.3,0.1-0.3c-0.9-0.4-6.2,0.3-6.5,0.4c-2.3,0.2-6.9,0-6.5-0.3c-0.4,0.3-0.7,0.1-1.3,0.3c0-0.2-2.9,0.3-5.3,0.3
				c0.3,0-0.9-0.6-4.9-0.5c-1,0-7.4,0.2-7.4-0.1c0,0.3-0.7,0.8-3.8,0.4c-2.2,0,1.9-0.4-2.5-0.4c-2.7,0-4.1,0.1-6.3,0.1
				c-1.7-0.2-6.8,0-5.4,0.1c1.1,0.1,3.5,0.3-0.8,0.3c0.1,0,0.3-0.2,0.3-0.2c-1.6,0-1.8,0.4-1.5,0.5c-5.1,0,0-0.5,0-0.8
				c-1.3-0.3-4.2-0.3-6.2-0.1c-1.6,0.2,0.9,0.4-0.2,0.5c-1.8,0.2-2.9-0.4-3.6-0.4c-2-0.1-2.2,0.4-4.5,0.3c-2.7-0.1-4.6,0.1-6,0.1
				c-1.7,0-2.1-0.3-4-0.3c-3.2,0-7.7,0.5-10.6,0.2c-1.7-0.1-4-0.5-6.5-0.4c-1.7,0.1-0.5,0.3-1.5,0.4c-0.8,0.1-2.8-0.2-2.2-0.2
				c-0.8,0.1-3.1,0.5-4.8,0.3c-0.9-0.1,2.6-0.5-0.9-0.4c-1.5,0.1-2.4,0.2-4,0.2c0-0.5,0-1,0-1.7c0-1,0-2.1,0.1-3.1c0-1,0-2.1,0-3
				c-0.1-1.8-0.2-3.1-0.5-3.1c0.1,0,0.6,0.5,0.6-1c0.2-3.6,0.1-13.5-0.5-9.6c0,0.2,0-2.2,0.1-2.7c0.1-0.3,0.2-0.8,0.3-1.3
				c0.3-1.6,0.2-5.2,0.3-7.8c0-1.8,0.1-8-0.3-8c-0.3-1.5-0.2-5.7,0-7.5c0.3-2.9,0-5.7,0-8.8c0-6.6-0.4,0.6-0.5,1.6
				c-0.3,3.1-0.5-1.6-0.2-1.6c0.3,0,0.2-4.2,0-5c0.2-0.2,0.7,1.9,0.7-1.3c0-3.7-0.8-5.7-1-8.8c0.1,0,0.9,3.5,0.9,1.1
				c-0.1-1.1-0.2-1.5-0.3-1.1c-0.1-0.1,0.2-1.2,0.3-1.2c-0.2,0-0.4,0.1-0.4-2.5c0.4,0.7,0.6-1.8,0.7-4.9c0.1-2.6,0.1-5.5,0-8.1
				c0-0.9-0.3-3.7-0.3-4.1c0-1.8,0.2-4.3,0.2-6.5c0-2.4,0-4.8-0.1-7.2c-0.1-5.1-0.3-4.5-0.9-4.4c0-5,0.8-4,0.8-6.3
				c-0.7-1.7-0.1-4.9-0.4-10c-0.2-2.2,0.4-5.9,0.4-0.6c0-2.1-0.1-4.5-0.1-5.8c0-2.7,0.2-4.7,0.1-7.6c-0.1-2.2-0.3,0.1-0.4-1.5
				c-0.1-1.7,0.1-5.8,0.4-5.8c-0.2-1.6-0.7-7.4-0.2-7.6c-0.7-0.5,0.4-3.7,0.1-6.4c-0.1-0.1-0.2,0-0.2,0.5c0.1-1,0.4-6.2,0.4-7.1
				c0-1.5-0.3-6.7-0.4-5.5c0.1-2.7,0.6-8,0.4-12c-0.1-1.6-1,2-1.2,2.4c0,0.1,0.3-3.8,0.5-4.2c0.1-0.3,0.8,0.2,0.8-1.7
				c-0.2-1.1-0.3-0.5-0.5-0.7c0,0,0-0.3,0-0.8c0-0.5,0.1-1.1,0.1-1.7c0.1-1.3,0.1-2.9,0.1-3.7c-0.1-1.1-0.4-0.1-0.3-2.5
				c0.1-2.2,0.6,0,0.4-4.4c-0.2,0-0.3,1.3-0.4,2.5c0-1.8-0.6-3-0.6-3.8c0.1-2.4,1.1-0.7,1-4.7c-0.1-2.4-0.7-1-0.7-2.7
				c0-0.2,0.5,0.1,0.5-1.3c0.1-2,0-4.3,0.1-6.4c0-0.9,0.2-5.1,0-5.1c0-0.6,0.2-3.2,0.2-2.9c-0.1-1.5-0.6-0.6-0.6-3.1
				c0-1.7,0.5,1.9,0.6-1c0-3.8-0.1-6.9-0.1-10.7c0.1,0,0.1-1.8,0.2-4.2c1.4,0,3,0,4.3,0c1.3,0,2.3,0,2.7-0.1c0.3,0,1.5-0.6,1.6-0.5
				c0.6,0.4,3.6,0.3,6.4,0.5c4.6,0.3,2.4-0.4,5-0.4c-0.7,0.4,9.3,0.5,11.3,0.3c0-0.3,4.3,0.5,6.3,0.3c3.6,0,2.2-0.3,4.1-0.4
				c1.1,0,1.7,0.1,2,0.2c0.2-0.3,4,0.1,5.2,0.2c1.4,0.1,2.9-0.3,4.2-0.3c1.6-0.1,0,0.1,2,0.1c4,0,7.3,0.2,11.3,0.1
				c2.6,0,4.7-0.2,7.2-0.2c0.6,0,3.6,0.1,3.2,0.1c2.6-0.1-1.1-0.5,3.3-0.4c2.3,0.1,4.6,0.3,6.8,0.4c1,0.1,9.7-0.8,9.7-0.1
				c0,0,0.2,0,0.6-0.1c0.4,0,1,0,1.7,0c1.4,0,3.4,0,5.4-0.1c4,0,8.4,0,9.8,0c4,0.2,4.5-0.2,8.1-0.1c1,0,4.3,0.1,1.5-0.1
				c1.5,0.2,8.8,0.3,15.8,0.4c3.5,0,6.9,0,9.4,0s4.2-0.1,4.2-0.2c0,0.2,6,0.3,7.2,0.2c2.4,0,4.1-0.9,5.4-0.8
				c1.3,0.1-0.8,0.4,0.7,0.5c1.9,0.2,2.8-0.1,4.2-0.2c3-0.1,6.7,0.5,8,0.4c3.3-0.1,0-0.5,4.2-0.3c2.6,0.1,4.8-0.1,7.6,0.1
				c3.2,0.2,7.2,0.5,9.3,0c-1,0.2,0.7,0.2,2.6,0.2c1,0,2-0.1,2.8-0.1c0.8,0,1.3-0.1,1.3-0.1c2.9,0,5.2,0.2,8.9,0.2
				c4,0,9.7,0,13.3-0.2c3.6,0,7.3,0,10.9,0c0.7,0,1.9-0.2,2-0.2c1.6,0,1.5,0.3,3.5,0.3c2.5-0.1,2.2-0.4,4.2-0.1
				c1.8,0.2,5.3,0.3,5.8,0c3.1,0.1,6.9,0.2,10.2,0.1c1.6,0,3.3-0.3,4.9-0.2c3,0.2,10.1,0.9,10.1,0c0,0.1,1.4,0.2,3.4,0.2
				c2.1,0,4.9,0.1,7.7,0.1c5.8,0,11.8,0,13.2,0c2.7,0,6-0.1,8.4-0.2c2.9,0,4.1,0.6,6.3,0.1c4.2-0.5,15.4,0.8,17.6-0.2
				c0,0.6,6.3,0,6.3,0.4c0-0.2,3.8-0.2,5-0.2c0-0.5,2.2,0.2,2,0.2c0.1,0,4.7-0.1,5.5-0.2c1.7,0.2,0.7-0.1,2.1-0.2
				c4-0.1,8.8,0.3,12.9,0.3c6.2,0.1,12.4,0.1,18.6,0c2.1,0,7.1-0.2,8-0.2c2.5,0,3.6,0.4,7,0.3c1.2-0.1,3.3-0.7,5.6-0.2
				c3.5,0,4.1,0.1,6.7,0.2c3.8,0.1,4.7-0.3,7.6-0.3c0.2,0,2.4,0.2,2.9,0.3c1.7,0.1,3.6,0.1,5.4,0c2.8,0,3.9-0.3,6.3-0.1
				c3.4,0,3.2,0,7.2,0c1.7,0,3.7,0,5.3,0c0.9,0,1.5,0.1,1.9,0.2c0.7,0,0.9-0.2,2.3-0.2c1.4,0,2.6,0,3.7,0.1c1.4,0,2.8,0,4.2,0
				c1.4,0,2.9-0.1,4.4-0.1c0,0.5,0,1,0,1.5c0,1.3,0,2.7-0.1,4.3c0,1.6,0,3.2,0,4.8c0,3.2,0,6.3,0.1,8c0.2,3.8-0.2,6.7,0,10.6l0,15.9
				c0,2,0.2,2.6,0,4.2c-0.1,0.3-0.1,0.8-0.1,1.7c-0.1,3.5,0,7.3,0,10.9c0,0,0,0.2,0,0.5c0,0.3,0,0.8,0,1.5c0,1.3,0,3.1,0,5.3
				c0,4.4,0,10.3,0,16.4c0,12,0,24.5,0,26.1c0,6.6,0,13.3,0,19.9c0,3.6,0,2.4,0.3,2.9c-0.4-0.7-0.3,18.6-0.3,20.7
				c-0.2,4.4-0.3,19.3,0,23.1c0.3,5,0,16.7,0,22.4c0,4.3,0.2,8.9,0.1,13.1c-0.1,9.9,0.1,17.7,0.2,28.5
				C663.9,316.8,664.9,316.4,664.6,311.9z"/>
			<path class="st1" d="M260.5,65.6c0,0,0.1,0,0.1,0C260.7,65.6,260.7,65.6,260.5,65.6z"/>
			<path class="st1" d="M239.6,67.6c0.1,0,0-0.1-0.2-0.2C239.4,67.5,239.4,67.5,239.6,67.6z"/>
			<path class="st1" d="M195.5,158.5c0,0,0.1,0.1,0.2,0.1C195.6,158.5,195.5,158.5,195.5,158.5z"/>
			<path class="st1" d="M663.6,222.6C663.6,221.4,663.5,225.2,663.6,222.6L663.6,222.6z"/>
			<path class="st1" d="M372.6,315.5c0.1,0,0.1,1.7,2.1,1.8c0.4,0,0.4-0.4,0.8-0.5c0.7-0.1,3.1,0.3,3.4,0.3l0-0.3
				c2.3,0,0.4,0.3,2.9,0.2c2.2-0.1,3.9-0.3,5.9-0.1c-0.1-0.1-0.7-0.5,0-0.6c-0.7,0,7.3,1,7.3,0.6c0,0-1,0-1.9-0.1
				c-0.9-0.1-1.5-0.1-0.7-0.2c1.7-0.2,5.2,0.4,5.5,0.3c1-0.1,1.5-1.5,4.1-0.8c0.9,0.2,0.8,0.5,3.5,0.5c2.7,0,3,0.5,4.9,0.5
				c1.5,0-2.4-0.6,3.9-0.1c1.3,0.1,3.7,0.1,5.3,0.1c3.3,0,6.4-0.1,9.8-0.1l0-0.5c-0.1-0.1-0.8-0.3-1.3-0.4c1.4,0.2,2.9,0.3,4.6,0.4
				c1.8,0.2-0.7,0.4,1.9,0.5c5.5,0.3,1.9-0.9,5.7-0.8c0.9,0,0,0.3,1.1,0.4c3.5,0.2,2.4,0,1.7,0.3c-0.7,0.3,5,0,5.1,0
				c0-0.3,3.5,0.1,3.8,0.1c2.8,0.1,12.6,0.3,12.6-0.3c0-0.2-3.4-0.5,1.2-0.5c3,0,5-0.6,6.2-0.5c3.7,0.4-2.4,0.9-2.4,1.3
				c0,0.7,5.8-0.3,6-0.3c0.5-0.1,2.4,0.3,2.8,0.3c1.7,0.2,0.7,0,2-0.1c2-0.1,3.3,0,5.2,0c1.4,0,2.9-0.3,3.5-0.3
				c0.4,0,1.8,0.3,1.9,0.3c0.4-0.1,1.1-0.3,1.3-0.4c2.5,0,0.7,0.4,0.5,0.5c1.2-0.4,7.1-0.7,7.1,0c0-0.4,3-0.5,2.5-0.8
				c1.7,0,1.2,0.6,2.8,0.8c1.7,0.1,6.4,0,6-0.3c1.6,1,6.3-0.3,6.4,0.3c6.3,0,12.5,0.3,13.9-0.6c0,0,0.2,0,0.4,0.1
				c0.2,0,0.5,0.1,0.9,0.1c0.6,0.1,1.2,0.2,1.2,0.2c3.4-0.7,4.5,0.2,10.1,0.2c4.5,0,3.4-0.2,6.3-0.5c1.7,0,5,0.1,4.3,0.4
				c-0.2,0.1-3.8,0.1-4.3,0c0,0,0.4,0.1,1.1,0.1c0.7,0,1.8,0,3,0.1c2.5,0,5.8,0.1,9.1,0.1c3.3,0,6.6,0,9.1,0c1.2,0,2.3,0,3,0
				c0.7,0,1.1,0,1.1-0.1c0.5,0,6.6-0.4,2.5-0.4c0.7-0.2,0.9-0.5,1.3-0.7c-0.3,0.2,5.1,0.3,4.4,0.7c-0.4,0.2-0.7,0.3-0.6,0.5
				c0-0.7,4.5,0.3,6.4,0c1.7-0.3-0.5-0.2,3.7-0.2c1.8,0.3,7.1,0.2,8.8-0.1c0.5-0.1,0.8-0.3,0.9-0.5c0.5,0.5,10.6-0.9,10.3-0.9
				c2.8,0-2.2,0.5-2.2,0.6c0,0.1,2.2,0.1,2.2,0.4c-4.1-0.1-8.3,0.5-3.9,0.5c1,0,11.5,0.3,10.1-0.2c1.9,0.6,6.8,0.4,7.7-0.1
				c-0.3,0.2,7.3,0.7,8.4,0.4c1.5-0.4-2.7-0.6-2.7-0.6c0-0.2,4.9-0.1,5.8-0.1c0.9,0-0.3-0.8-0.1-0.9c0.1-0.1,2.3-0.4,1.1-0.4
				c0-0.4-5.2,0.4-5.4,0.5c-1.1,0-1.8,0-2.2-0.2c-0.3,0.5-5.7,0.2-1.4-0.3c0.6-0.1-0.4-0.5-2.4-0.1c-0.6,0.1-1.7,0-2.6,0
				c-0.5,0-0.9,0-1.2-0.1c-0.3,0-0.5,0-0.5,0c-0.6,0.2,2.5,0.4-1.2,0.4c-2.1,0,0.2-0.3-2.1-0.3c-4.4,0-6.5-0.4-10.1,0
				c-0.1,0-4.2,0.3-4.5,0.3c-4.9,0-4.4,0-4.3,0.6c-4.4,0-0.7-0.5-4.7-0.5c2.6,0,2.2-0.2,2.2-0.4c0,0.1-1.1,0.1-2.3,0.1
				c-1.2,0-2.6,0.1-3.2,0.2c-0.2,0.1-4.5,1.4-4.5,0.5c2.2-0.2-7.1-0.8-8.8-0.8c-7.2,0,2,0.7-1.6,0.8c-1.7,0.1-3.3-0.7-3.9-0.7
				c-0.4,0-0.6,0.1-0.8,0.1c-0.6-0.5-6.8,0.1-8.4-0.2c-0.2,0-2.9-0.5-2.9-0.5c-3.2,0.4-5.4,0.3-9.6,0.4c-1.9,0-2.4,0.4-4.8,0.5
				c-0.2,0-3.1,0.1-3.1,0c-1.9-0.2-2.4,0-4.2,0.2c-3.7,0.2-2.9-0.6-4.8-0.6c-2.6,0.1,1.1,1.3-3.5,1.2c0.7,0-0.7-1.4-2.6-0.7
				c-2.8,0.6-4.7-0.4-6.3-0.5c-8.3-0.3-10.1,0.6-16.3,0.8c5.6-0.2-2.2-1.1,0.7-0.2c-1.3-0.4-6-0.6-7.6-0.1c-0.7,0.2-1.2,1.1-2.1,1.2
				c-5.5,0.5-1.7-0.3-1.4-0.5c0.8-0.5,0.6-0.5-2-0.6c0.8,0-8.1-1.4-10.3-0.6c-0.9,0.3,6.4,1-1.4,1.1c0-0.6-3.8-0.7-7.6-0.4
				c0-0.1,0.8-0.2,1.5-0.2c0.8-0.1,1.5-0.1,1.5-0.1c-0.3-0.1-4.3-0.2-5.1-0.2c-1.6,0.1,1.7,0.5-0.6,0.5c-3.6,0-2-0.5-6.2-0.5l0,0.5
				c-5.4-0.4-7.1,0.3-9.7,0.2c-1.4-0.1-1.9-0.6-4.2-0.6c0.7,0.2,4.5,0.9,0,1c-0.9,0.1-0.7-0.2-2.5-0.1c-0.2,0-1.5,0.2-2.2,0.2
				c1.4,0-1.8-1-2.1-0.8c-1.2,0.9-2.1-0.4-3.2-0.5c1,0.1,1.7,0.3,3.4,0.4c1.8,0-2.4-0.4-3.2-0.4c-1.6,0-3.6-0.1-5.3,0
				c1.4,0,1.9,0.1,1.7,0.2c-0.3,0-2.5,0-4.5,0.1c-1,0-2,0-2.8,0c-0.7,0-1.2,0-1.2,0.1c0-0.2,1.4-0.1,2.4-0.1c-0.5,0-3,0-5.4,0.1
				c-1.2,0-2.3,0-3.2,0c-0.4,0-0.8,0-1,0c-0.2,0-0.4,0-0.4,0c0,0-4,0.7-4.8,0.5c-0.9-0.2,1.1-0.4-0.1-0.6c-0.8-0.1-3.4,0-3.4-0.2
				c-3.2-0.3-8.2,0.2-8.9,0.5c-1.1,0.6-6.6,0.1-6.2-0.2c-1.1,0.7-2.4,0.1-6-0.1c-2.5-0.1-1.5,0.4-2,0.4c-1-0.1-2.2-0.3-3.6-0.3
				c-0.8,0,0.2,0.4,0.2,0.5c0,0.1-3.7-0.4-2.7-0.4c-1.1,0-2.3,0.4-2.2,0.4c-1.3-0.1,1-0.6-1.4-0.7c-0.6,0-1.3,0.3-2.3,0.3
				c-0.7,0-1.2-0.7-5.6-0.5C373.1,314.9,378.1,315.5,372.6,315.5z"/>
			<path class="st1" d="M452,317.1L452,317.1C452,317.1,452,317.1,452,317.1z"/>
			<path class="st1" d="M596.6,314.5C596.6,314,591.9,314.4,596.6,314.5L596.6,314.5z"/>
			<path class="st1" d="M596.6,314.5C596.6,314.3,596.6,314.5,596.6,314.5L596.6,314.5z"/>
			<path class="st1" d="M371.3,314.3c1.3,0,2.1,0,2.5-0.1l0-0.1C371.8,314,371.5,314.1,371.3,314.3z"/>
			<path class="st1" d="M415.4,314.3l0-0.1l-1.3-0.1C412.5,314.2,412.9,314.3,415.4,314.3z"/>
			<polygon class="st1" points="424.2,314.1 424.2,314 424.2,314.3 			"/>
			<path class="st1" d="M643.2,317.2c0-0.1-0.1-0.3,0.4-0.3c0.4,0,10.6,0.9,12.2,0.1c0.6,0.6,3.8-0.1,3.8-0.4c0-0.1,1.9-0.6,0-0.6
				c-0.8-0.2-3.8-0.3-3.8,0c5.8-0.1,0,0.6,0,0.3c0-0.3-3.7-0.5-3.3-0.7c0.1-0.1,2.3-0.5,1.6-0.6c-1.1-0.1-2.5,0.1-4.2-0.1
				c-0.5-0.1-0.1-0.5-0.8-0.5c-0.1,0-4.2,0.1-2.1-0.1c0,0,0,0,0-0.1c-0.3-0.6-4.7-0.3-3.7,0.1c1.1,0.4-0.1,0.5-0.5,1
				C642.5,315.3,641.4,317.2,643.2,317.2z"/>
			<path class="st1" d="M227.9,314c-1-0.2-2.4-0.2-3.8,0C224.1,314.2,227.3,314.1,227.9,314z"/>
			<path class="st1" d="M360,314.2l0-0.3c-0.2,0-0.3,0-0.4,0C357.5,313.7,356.2,314.2,360,314.2z"/>
			<path class="st1" d="M596.5,313.8c0,0.2,2.5,0.4,2.5,0.1C599.1,313.4,597.3,313.8,596.5,313.8z"/>
			<path class="st1" d="M196.7,283.4c0-1.6,0.3,1,0.3,0.9c0.1,0.6,0.1,0.3,0.1,0.1l0.1,0.1c0.1-0.9-0.4-5-0.4-4.4
				C196.7,281.2,196.7,282.3,196.7,283.4z"/>
			<path class="st1" d="M196.9,294c-0.1-0.2-0.1-0.3,0.1,0.4l0,0l0,0c0.3-0.1-0.1-3.3-0.4-2.8C196.5,291.9,196.8,293.3,196.9,294z"
				/>
			<path class="st1" d="M197,294.4L197,294.4C197,294.5,197,294.4,197,294.4z"/>
			<path class="st1" d="M302.1,313.9c0.2-0.1-0.2-0.2-1.3-0.1C297.9,314.2,302.1,314.6,302.1,313.9z"/>
			<path class="st1" d="M379.3,314.2c2.7,0.2,3.4-0.3,5.9-0.3c0.5,0,1-0.1,1.4-0.1C384.9,313.7,377,314,379.3,314.2z"/>
			<path class="st1" d="M404,313.9l0-0.1C401.4,313.5,400.9,313.9,404,313.9z"/>
			<path class="st1" d="M238.4,69c1.4,0.3,2,0,3.8,0C242.1,68.8,238.4,68.8,238.4,69z"/>
			<path class="st1" d="M251.8,314l0-0.1l0-0.3C249.3,313.5,250.8,313.9,251.8,314z"/>
			<path class="st1" d="M328.5,313.6l0-0.1c-0.8,0.1-0.9,0.1-1.2,0.3C328.3,313.8,328.7,313.8,328.5,313.6z"/>
			<path class="st1" d="M392.7,313.7c0-0.3-5.1,0-4.2,0C389.4,313.9,394.6,313.9,392.7,313.7z"/>
			<path class="st1" d="M392.7,313.7C394,313.9,392.7,313.6,392.7,313.7L392.7,313.7z"/>
			<path class="st1" d="M415.3,313.7l0-0.1C412.7,313.4,412.2,313.7,415.3,313.7z"/>
			<path class="st1" d="M419,314.2c0.2-0.1,0.2-0.2,0.1-0.3l0-0.3C416.2,313.6,418.9,314.2,419,314.2z"/>
			<path class="st1" d="M429.2,313.6l0-0.1c-0.8,0.1-0.9,0.1-1.2,0.3C429,313.8,429.4,313.7,429.2,313.6z"/>
			<path class="st1" d="M593.9,313.9c0.2,0,0.6-0.4-1.1-0.4c-0.7,0-5,0-5,0.1C590.9,313.6,592,313.9,593.9,313.9z"/>
			<path class="st1" d="M203.6,69c-1.2-0.1-3-0.1-3,0.1C200.6,69.4,205.6,69.1,203.6,69z"/>
			<path class="st1" d="M197.2,117l0.1,0C197.6,114.1,197.2,113.7,197.2,117z"/>
			<path class="st1" d="M197.2,217.6c0.1,0.3,0.2-0.1,0.3-1.3C197.2,213.2,197,217.6,197.2,217.6z"/>
			<path class="st1" d="M197.1,247.8c0.1,0.4,0.1,0.7,0.1,0.9c0.1,0.2,0.1,0.2,0.2-0.1c0.1-1.4-0.4-3.1-0.5-3.3
				C196.9,246.6,197,247.4,197.1,247.8z"/>
			<path class="st1" d="M197.2,248.7c0-0.2-0.1-0.4-0.1-0.9C197,247.8,197.3,249.5,197.2,248.7z"/>
			<polygon class="st1" points="216.5,313.8 216.5,313.5 216.5,313.7 			"/>
			<path class="st1" d="M232.9,313.7c0.3-0.1-0.1-0.2-1.3-0.3C228.5,313.8,232.9,314,232.9,313.7z"/>
			<path class="st1" d="M305.9,313.5l0-0.1c-0.8,0.1-0.9,0.1-1.2,0.3C305.7,313.7,306.1,313.6,305.9,313.5z"/>
			<path class="st1" d="M408.6,313.7c-0.1,0-0.1,0.1,0.5-0.1c0,0,0,0-0.1,0c-0.3-0.2-3.7,0-3.7,0.2
				C405.3,314,407.6,313.8,408.6,313.7z"/>
			<path class="st1" d="M435.5,313.9c2.2-0.2,0.5,0.3,2.5,0.3l0-0.1l2.5,0c-1,0.4,4.7,0.6,4.7,0.1c0-0.9-5.8-0.2-8.5-0.5
				C434.4,313.3,428.2,313.9,435.5,313.9z"/>
			<polygon class="st1" points="197.2,75.4 197.5,75.4 197.3,75.4 			"/>
			<path class="st1" d="M196.9,231.6c0,3.3,0.1,6.7,0.4,8.4c-0.1-0.5-0.3-2.1-0.3-3.1c0-0.5,0.4-0.5,0.5-0.4
				C197.7,235,196.9,227.7,196.9,231.6z"/>
			<path class="st1" d="M197.5,244.1c0-0.4,0.2-6.1,0-5.5C197.4,239.1,197.2,244.1,197.5,244.1z"/>
			<path class="st1" d="M241.7,313.5c2.2-0.2-5.1-0.1-1.2,0.3C241.6,313.8,242,313.7,241.7,313.5z"/>
			<path class="st1" d="M241.7,313.5C241.7,313.7,242.9,313.4,241.7,313.5L241.7,313.5z"/>
			<path class="st1" d="M308.5,313.7c1.8,0.1,1.2-0.3,1.2-0.3l-1.1-0.1C308.6,313.3,307.1,313.7,308.5,313.7z"/>
			<path class="st1" d="M367.5,313.7c-1.1,0.1,2.5,0.2,3.5,0.1c0.6-0.1,3.3-0.5,0.3-0.5c-0.7,0.1-1.1,0.2-1.2,0.3
				c-2.8-0.5-4,0.1-6.3-0.1c-0.5-0.1-1.2-0.1-1.9-0.2c-0.5,0,1.6,0.8,1.9,0.9C365.2,314,366.2,313.8,367.5,313.7z"/>
			<path class="st1" d="M385.1,313.4C385.1,313.4,385.1,313.4,385.1,313.4L385.1,313.4z"/>
			<path class="st1" d="M385.1,313.5C385.1,312.8,378.4,313.6,385.1,313.5L385.1,313.5z"/>
			<path class="st1" d="M597.8,313.4c-0.2-0.1-0.6-0.2-1.3-0.3C593.4,313.4,597.8,313.6,597.8,313.4z"/>
			<path class="st1" d="M272.4,69.1c-0.6-0.1-0.6-0.2-2.5-0.2c-0.1,0.2,0.3,0.3,1.3,0.4c1.1,0.1,7.6,0.3,7.6,0
				C277.5,69.3,272.4,68.5,272.4,69.1z"/>
			<path class="st1" d="M245.9,69.3c0.2,0.1,0.6,0.2,1.3,0.2c1.4-0.1,1-0.6,0.9-0.6C247.1,68.9,246.2,69.2,245.9,69.3z"/>
			<path class="st1" d="M198,68.9c-0.3,0-0.7,0-1,0c0,0.3,0,0.6,0.1,0.9c0,0.1,0,0.1,0,0.2c0,0,0,0.1,0,0.2c0,0.2,0.1,0.4,0.1,0.6
				c0.1,0.6,0.2,0.7,0.4-0.3c0-0.1,0-0.3,0-0.4c0,0,0-0.1,0-0.1c0,0,0-0.1,0-0.1c0-0.1,0-0.1,0-0.1c0,0,0,0,0,0c0-0.1,0-0.2,0-0.3
				c0.2,0,0.4-0.1,0.6-0.1c0.6,0,1.2-0.1,1.5-0.1c0.3-0.1,0.4-0.1,0.2-0.2c-0.1,0-0.3-0.1-0.7-0.1C198.9,69,198.5,68.9,198,68.9z"/>
			<path class="st1" d="M197.3,173.6l0.1-1.3c0.1-1,0.4-5,0-5C197.6,170.1,197.3,171.3,197.3,173.6z"/>
			<path class="st1" d="M197.5,273c0.5,0-0.3-7.2-0.5-7.5c0,2.6,0.1,3,0.1,5.5C197.1,268.5,197.6,269.9,197.5,273z"/>
			<path class="st1" d="M197.5,313.3l0.1-0.1c0.1-0.2,0.1-0.3,0.1-0.3c0-0.4,0-0.6-0.1-0.6c0,0-0.1,0.1-0.1,0.5c0,0.1,0,0.1,0,0.2
				c0,0,0,0.1,0,0.1C197.6,313.1,197.5,313.2,197.5,313.3z"/>
			<path class="st1" d="M304.6,313.2c-1.3-0.2-4.8,0-3.6,0.1C301.7,313.4,304.6,313.4,304.6,313.2z"/>
			<path class="st1" d="M317.2,313.4c1.3-0.1,2.5-0.2,3.8-0.3c-2.1,0.1-4.3,0.2-6.3,0.2c-3.5,0.2-0.9,0.3-2.4,0.5
				C313.6,313.7,314.8,313.4,317.2,313.4z"/>
			<path class="st1" d="M351.2,313.8c0-0.3,2.9-0.1,3.4-0.1c0.4-0.1,0.6-0.2,0.4-0.3l0-0.1c0,0-0.4,0-1.1,0.1
				c-0.6,0-1.5,0.1-2.4,0.1c-1.7,0.1-3.4,0.2-3.4,0.2C348.1,313.7,351.2,314,351.2,313.8z"/>
			<path class="st1" d="M263.6,69.4c0.1,0.1,0.5,0.1,1.3,0.1c0.6-0.2,0.3-0.4-1.3-0.5L263.6,69.4z"/>
			<path class="st1" d="M197.2,100.6c-0.2,0,0.5,8.7-0.3,7.6c0,3.6,0.6,1.1,0.7,0c0.2-1.7,0.2-3.4,0-3.8c0-1.9,0.4-3.3,0.2-4.4
				c-0.1-0.7-0.5-0.2-0.5-1.9c-0.1-0.7-0.1-1.3-0.2-1.8C196.9,96.1,197.1,100.1,197.2,100.6z"/>
			<path class="st1" d="M197.7,132.1l0.1,0c-0.1-0.8-0.1-0.9-0.3-1.2C197.6,131.8,197.6,132.3,197.7,132.1z"/>
			<path class="st1" d="M197.7,164.8c0.2-1.5,0.2-3.6,0-5C197.5,159.7,197.5,164.8,197.7,164.8z"/>
			<path class="st1" d="M197.7,257.9l0.1,0C198,255.2,197.7,254.7,197.7,257.9z"/>
			<path class="st1" d="M197.5,303.2l0.3,0c-0.4,0-0.1-7.6-0.7-5C196.7,300.8,197.2,304.3,197.5,303.2z"/>
			<path class="st1" d="M197.5,303.2C197.1,304.5,197.8,303.2,197.5,303.2L197.5,303.2z"/>
			<path class="st1" d="M196.7,313.9c0,0.1,0,0.3,0,0.4c0.5,0,1,0,1.4,0c0.6,0,1.2,0,1.6-0.1c0.9-0.1,1.4-0.1,1.4-0.2
				s-0.4-0.1-1.3-0.2c-0.5,0-1,0-1.7-0.1c-0.3,0-0.6,0-1,0c0-0.1,0-0.2,0-0.2c0-0.1,0-0.2,0-0.3c0-0.1,0-0.3,0-0.4
				c0-0.6,0.1-1.1,0.1-1.6c0.1-1,0.2-1.9,0.3-2.9l0.3,0c0-5.9-0.7,0-1,0c0.2,0,0.2,1.6,0.2,3.1c0,0.4,0,0.8-0.1,1.2l0,0.3l0,0.1
				c0,0.1,0,0.2,0,0.2C196.9,313.5,196.8,313.8,196.7,313.9z"/>
			<path class="st1" d="M214.3,313.6c-0.8,0-0.6-0.1-0.1-0.2s1.1-0.2,1.1-0.2c-1.3,0-2.8,0-4.1,0C213.6,313.2,212,313.6,214.3,313.6
				z"/>
			<path class="st1" d="M206.3,313.1c0.1,0,0.1,0,0.1,0c-0.4,0-0.5,0-0.5,0c-1.6-0.1-5.2,0-4.5,0
				C201.4,313.2,205.7,313.2,206.3,313.1z"/>
			<path class="st1" d="M376.3,313C376.3,313,376.3,313,376.3,313L376.3,313z"/>
			<path class="st1" d="M376.3,313.1C376.3,312.6,371.6,313,376.3,313.1L376.3,313.1z"/>
		</g>
	</g>
</g>
<linearGradient id="SVGID_2_" gradientUnits="userSpaceOnUse" x1="428.7972" y1="318.187" x2="428.7972" y2="70.6994">
	<stop  offset="0" style="stop-color:#FFFFFF"/>
	<stop  offset="0.2247" style="stop-color:#D9D4D2;stop-opacity:0.7753"/>
	<stop  offset="0.7301" style="stop-color:#7B6862;stop-opacity:0.2699"/>
	<stop  offset="1" style="stop-color:#462C24;stop-opacity:0"/>
</linearGradient>
<rect x="192.8" y="70.7" class="st2" width="472" height="247.5"/>
<path class="st7" d="M456.3,63.7c1.6,8.4,6.7,15.5,16,17.7c7.6,1.8,13.9,5.4,18.8,11.7c2.8,3.6,6.7,6.4,9.9,9.8
	c2.3,2.4,4.3,5.2,6.2,7.9c2.5,3.5,6.2,5.1,9.9,6.4c5.3,1.9,10.8,3,16.1,5c9.8,3.6,17.2,9.8,20.9,20c1.6,4.3,4.7,7.4,8.8,9.3
	c5.1,2.3,10.3,4.5,15.3,6.9c3.8,1.8,6.2,5.2,7.7,8.9c1.9,4.7,4.3,8.5,8.8,11.1c1.6,0.9,2.4,3.1,3.1,5c-3.2-1.8-6.7-3.3-9.6-5.5
	c-1.9-1.5-3-4-4.2-6.2c-2-3.9-3.6-8.1-8.4-9.8c2.3,10.6-0.6,19.9-6.5,28.5c-1.3,2-2.1,4.5-2.6,6.9c-0.6,2.6,1.1,4.4,3.4,5.1
	c4.2,1.3,7.3,4,10.3,7c1.8,1.8,3.7,3.3,6.1,5.4c-3.8-1-5.5-3.8-8-5.6c-2.6-1.8-5.4-3.2-8.3-4.7c-2.9-1.5-5.8-2.8-9.2-4.5
	c0.6,1.1,0.9,2.1,1.6,2.9c3.2,4.1,6.7,8.1,9.8,12.2c3,4,5,8.6,5.5,13.6c0.2,1.9-0.4,3.9-1,5.9c1.2-10.8-3.8-18.2-12.1-24.1
	c-2.8,3.3-3,4.7-0.2,8.9c2.3,3.4,3.4,7.2,3.1,11.1c-0.4,5.1-1.5,10.1-2.3,15.2c-0.3,0-0.5-0.1-0.8-0.1c0.4-3.1,0.6-6.2,1.2-9.2
	c0.7-4.2,1-8.3-1.6-12.2c-1.3-1.9-1.9-4.2-2.9-6.3c-0.2,0-0.5-0.1-0.6,0c-5.8,5.7-10.9,11.8-12.4,20.1c-0.4,2.5,0.9,4.3,2.7,5.5
	c7.5,5,7.2,5,11.9,14.5c-2.4-2.9-4.6-6.1-7.2-8.8c-2.6-2.7-5.7-4.9-8.8-7.5c-0.5,1.2-1.2,2.6-1.7,3.9c-1.1,3-2.3,5.9-2.9,9
	c-0.4,2-0.3,4.4,0.4,6.3c1.7,4.1,4,8,5.9,12.1c0.7,1.5,1,3.3,1.5,5c-2.6-4.6-5.2-9-7.5-13.5c-1.2-2.4-1.9-5-2.8-7.6
	c-1.4-3.7-4-6.4-7.4-8.3c2.5,1.6,5,3.2,7.9,5.1c-0.5-5-0.7-9.8-1.6-14.6c-0.5-2.4-1.7-5-3.4-6.8c-3.8-3.9-5.5-8.1-4-13.5
	c0.4-1.3,0.6-2.8,0.6-4.2c0-0.6-0.2-1.5-0.7-1.8c-1.2-0.9-2.5-1.6-3.8-2.3c-1.2-0.7-2.3-0.9-2.6,1.1c-1.3,7.8-2.8,15.7-4.1,23.5
	c-0.6,4,1.2,7.2,4.7,9.1c1.4,0.7,2.6,1.7,3.9,2.6c-3-1.4-5.9-2.8-9.1-4.2c0.7,4.5,1.2,9.1,3.3,13.6c2.1,4.5,3.9,9.3,5.7,14
	c0.3,0.7,0.2,1.6,0.2,2.8c-1.8-4.1-3.3-7.9-5-11.6c-1.8-3.9-3.9-7.6-5.8-11.4c-0.6-1.3-1.2-2.9-1-4.3c0.9-6.5-3.1-10.9-6.3-15.7
	c-1.5-2.3-3.6-4.2-5.8-6.7c-1,7.5-3.5,14.3-0.5,21.3c0.7,1.7,1.6,3.3,2.6,4.9c3.7,6.1,3.9,12.6,2.3,19.2c-0.2,0.8-0.3,1.6-0.5,2.4
	c0,0.2-0.3,0.3-0.7,0.6c1.3-6.4,1.4-12.6-1.1-18.5c-0.8-1.8-1.8-3.5-2.7-5.2c-3.3-6.3-3.8-13.1-2.3-19.7c1.2-5.6-0.5-9.5-3.7-13.7
	c-1.9-2.5-2.8-5.8-4.1-8.8c-8,3.9-10.2,11.2-6.2,19.8c2.6,5.6,5,11.4,4.4,17.8c-0.2,2.2-0.9,4.4-1.2,6.6c-0.4,3.2-1,6.6-0.6,9.7
	c0.6,4.5,2.1,8.8,3.3,13.6c-3.1-5-6.7-9.4-6.7-15.3c0-3.4,0-6.8,0.6-10.1c1.2-6.6-0.4-12.6-3.9-17.9c-4.7-7.1-5.6-14.5-4.2-22.5
	c0.9-5.3,0.4-10.5-2.5-15.2c-1.2-2-2.8-3.7-4.2-5.5c-2.3-2.9-4.7-5.7-7.6-9.1c0.1,1.5,0,2.5,0.3,3.4c1.5,6.3,1.1,12.2-2.6,17.8
	c-0.8,1.2-0.7,3.4-0.3,5c1.4,5.2,3.4,10.3,4.6,15.6c1.3,5.9,3.9,10.9,8.1,15.3c5.5,5.9,9.2,12.7,9.6,21c0.3,5,0.4,9.9,0.5,14.9
	c0,0.9-0.2,1.8-0.3,2.7c-0.2,0-0.5,0-0.7,0c0-3.4,0.1-6.7,0-10.1c-0.2-6.7-1.2-13.4-4.8-19.1c-2.1-3.4-5.1-6.4-7.9-9.3
	c-3.6-3.7-5.8-7.8-6.7-12.9c-1-5.5-2.5-10.8-4.3-16.2c-3.9,7.9-4.4,15.9-1.7,24c2.3,6.8,5.2,13.4,7.1,20.4c1.3,4.6,1.2,9.6,1.9,14.4
	c0.6,4,1.6,8,2.5,12c0.6,2.7,1.4,5.3,1.8,8.1c-4-8.8-5.8-18-6.4-27.5c-0.5-8.2-3.7-15.6-7.4-22.7c-4.8-9.4-5.6-19.1-1.6-29
	c1.8-4.4,0.9-6.6-3.9-9.9c-6.4,12.9-7.1,23.2-3.3,52.7c-0.2,0-0.5,0.1-0.7,0.1c-1-5.4-2.2-10.8-3-16.3c-1.7-12.4,0.5-24.3,4.5-35.9
	c0.8-2.4,0.2-3.9-1.7-5.2c-0.9-0.6-1.6-1.5-3-2.8c0.2,3,0.2,5.3,0.6,7.6c0.7,3.9-0.8,6.9-2.6,10.2c-5,8.9-11.4,17.3-9.6,28.5
	c1,5.9,1.9,11.9,3,17.7c0.6,3.2,1.4,6.4,2.7,9.4c2.6,6.3,0.9,12.5-0.3,18.5c-1.2,5.8-2.5,11.4,0.7,16.9c0.1,0.2,0,0.5,0,1
	c-2.9-2.8-4.3-6-4-9.8c0.4-5.5,0.8-11,1.3-16.5c0.3-3.7-0.1-7.1-2.9-9.8c-0.7-0.7-1.1-1.8-1.3-2.7c-1.7-9-3.5-18-4.9-27.1
	c-1.3-8.1,2.1-15.5,5-22.8c3.4-8.3,4.1-16.9,3.1-25.6c-0.1-0.9-0.2-1.9-0.4-3.5c-2,5-5.2,7.8-9.6,9.3c-0.5,0.2-0.9,1.6-0.9,2.5
	c0.3,3.2,0.8,6.3,1.1,9.5c0.1,1.5-0.3,3.1-0.8,4.7c-0.4-5-0.7-10-1.1-15.6c-5.1,2.7-8.6,5.9-10.9,10.3c-0.3,0.7,0.1,2,0.6,2.8
	c2,3,4.1,5.8,6.1,8.7c5,7,5.4,14.8,3.9,22.9c-1.9,10.5-3.9,21-4.1,31.7c0,2.2-0.8,4.4-1.8,6.4c1.2-11.6,2.5-23.2,3.7-34.9
	c0.4-3.9,0.8-7.8,0.9-11.8c0.3-6.1-3.1-10.8-6.4-15.5c-1.5-2.1-3.2-4.1-5-6.4c-2.8,4.3-6.2,7.8-6.4,13.2c-0.1,4.1,2.2,7,3.8,10.4
	c1.8,3.8,3.4,7.8,5.1,11.6c-0.2,0.1-0.4,0.2-0.7,0.3c-1.7-3.6-3.4-7.3-5.1-10.8c-0.9-1.8-2-3.6-2.9-5.4c-2-4-2.4-8,0.4-12.7
	c-2.6,0.7-4.5,1.2-6.3,1.7c2.4-1.7,5.1-3.2,7.1-5.3c1.6-1.7,3.2-4.2,3.2-6.4c0.1-4.5-0.9-9-1.5-13.6c-0.1-1.1-0.2-2.3-0.2-3.4
	c-0.4,0-0.7-0.1-1.1-0.1c-0.7,2.7-1.6,5.3-1.9,8c-1,6.9-0.9,14.1-5.5,20c-0.1,0.2,0,0.5-0.1,0.8c-3.1,1.3-3.2,2.5-3,5.6
	c0.3,5.1,0.4,10.3-0.3,15.4c-0.8,6,0.6,11.2,3.3,16.4c1.9,3.7,3.2,7.7,4.4,11.7c0.5,1.7,0.1,3.6,0.1,5.7c-0.5-0.3-0.7-0.4-0.7-0.4
	c0.7-7.1-2.6-12.9-5.8-18.7c-3.1-5.8-3.4-11.9-2.4-18.3c0.7-4.2,1-8.5-0.9-13c-7.3,4.9-8.6,12.3-9.5,19.9c-0.9,7.8,1.7,14.7,6.1,21
	c-3.3-2.5-6.7-9.4-7.4-14.2c-0.3-2.1-0.7-4.2-1.1-6.3c0.2-0.6,0.6-1.1,0.6-1.7c-0.1-4.3,0.4-8.5,2.9-12.1c1.9-2.6,4.1-5,6.1-7.6
	c0.6-0.8,1.3-2.1,1-2.8c-1.1-3.5-2.5-6.9-3.8-10.3c-2,1.8-4.2,3.7-6.4,5.7c-0.6-0.5-3.7,1-3.8,2.5c-0.4,8-1.5,16.1,2.1,23.7
	c-3.2-1.6-3.2-5.1-3.6-7.8c-0.6-3.6-0.2-7.4-0.2-11.2c0-1.2,0.1-2.4,0.2-3.8c-4.5,3.3-6.5,10.3-4.7,15c3.3,8.6,6.7,17.2,9.6,26
	c2,6.1,2.7,12.6,1.4,19.1c0.5-16.4-7.1-30.3-13.1-44.4c-2,3.3-4.3,6.5-6,9.9c-0.6,1.1-0.3,2.9,0.3,4.2c1,2.2,2.3,4.2,3.6,6.2
	c3.9,5.8,5.3,12.5,7,19.1c1.2,4.5,2.7,8.9,3.9,13.4c0.7,2.5,1.1,5,1.5,7.6c-6.1-15-8.6-31.5-20.1-43.7c-2.2,6.7,0.7,13.3,2.6,20
	c-2.8-6.9-6.1-13.8-3.5-21.7c0.4-1.2-0.3-2.9-0.8-4.3c-0.4-1-1.2-1.8-2.1-3.1c0.7,0.4,1,0.5,1.4,0.7c-1.2-4.6-2.8-9.1-3.5-13.8
	c-0.7-4.7-0.6-9.5-0.9-14.1c-1.1,1.7-2.5,3.5-3.6,5.4c-0.4,0.7-0.2,1.8,0,2.6c1.1,4.3,2.2,8.6,3.3,13c-0.2,0.1-0.5,0.2-0.7,0.2
	c-1.5-4.7-3-9.4-4.5-14.1c-4,1.9-4.4,2.5-3.3,6.7c2.7,9.5,5.5,19,8.2,28.6c0.6,2.2,1,4.7,0.8,6.9c-0.8,7.4-0.6,14.5,4.3,20.8
	c-0.2,0.1-0.5,0.2-0.7,0.3c-0.7-1-1.4-2-2-3.1c-2.7-5.1-4.4-10.4-3.5-16.4c0.4-2.9-0.3-6.2-1.1-9.1c-1.3-4.7-3.2-9.3-4.7-13.8
	c-1.6,8.7-7.6,16.4-7,26c-1.3-6,0.3-11.9,2.7-17c4-8.6,2.3-16.8,0.7-25.9c-4.4,3.7-8.3,7-12.1,10.5c-0.5,0.5-0.1,2.1,0.1,3.2
	c1.2,7.4,2.4,14.8,3.6,22.2c0.1,0.7,0,1.5,0,2.2c-0.3,0.1-0.5,0.1-0.8,0.2c-1.6-8.3-3.3-16.7-5-25.5c-2,2.9-3.6,5.4-3.6,8.7
	c0,5,0.3,10.1-0.3,15.1c-0.7,6,0.9,11.1,4.1,15.9c0.3,0.4,0.4,0.9,0.4,1.5c-4.4-5.3-6.4-11.4-5.4-18.4c-3.2,5-6.9,9.6-7,15.9
	c-0.1,6.1,4.1,10.7,5.5,16.2c-0.3,0.1-0.6,0.2-0.8,0.3c-2.2-5-4.3-10-6.7-14.9c-1.3-2.7-2.6-5.4-4.4-7.7c-4.3-5.5-5.8-12-6.9-18.7
	c-0.7-4.3-0.9-8.5,1.1-12.6c2.3-5,1.9-10.4,1.5-15.8c-0.2-3.8-0.7-7.7-0.5-11.5c0.1-3,0.8-6.1,1.8-9c1.3-3.9-0.3-7.4-0.7-11
	c-0.1-0.6-0.3-1.1-0.4-1.6c-2.2-6.4-1.5-12.3,4-17.9c-8.1,3.4-13,8.5-14.7,16.4c-1.1,5-2,10.1-3.1,15.2c-0.4,1.8-1.2,3.4-2,5.8
	c-2.5-11.6,0.6-25.7,7.6-34.1c2-2.4,4.6-4.4,7.3-6c4.5-2.7,7.5-6.6,9.8-11.1c3-6.1,5.4-12.8,10.9-17c4.4-3.4,9.4-6,14.3-8.7
	c6.3-3.4,13.1-6,19.1-10c5.8-3.8,10.7-9,16-13.5c5.7-4.8,11-10.1,17.2-14c4.9-3.1,10.8-4.6,16.3-6.5c5.2-1.8,10.7-2.8,14.8-7
	c3-3.1,5-6.5,4.8-10.9 M389.7,128.3c0.1,0.4,0.3,0.8,0.6,1.6c5.5-5.3,12-9.6,13.1-17.9c-2.6,0.2-3.9,1.7-4.5,4
	c-0.2,0.6-0.5,1.2-0.9,1.7C395.2,121.3,392.4,124.8,389.7,128.3c1.4-2.4,2.7-4.9,4.3-7.2c1.4-2,3.7-3.6,3.7-7
	c-1.3,0.6-2.2,0.9-3,1.4c-3.3,1.9-5.3,4.9-6.7,8.3c-1.9,4.4-4.4,8.2-8.7,10.5c-3.5,1.9-4.5,4.1-3.5,8.5c1.4-0.8,3.2-1.3,4-2.5
	C382.7,136.1,387.9,133.6,389.7,128.3z M490.2,175.3c0.3,1.5,0.6,3.1,0.8,4.6c0.3,3.7,0.8,7.4,0.5,11c-0.4,4-1.9,8-2.7,12
	c-0.6,2.8-1,5.6-1.4,8.4c6.3-5.9,11.9-12.4,12.8-21.1c0.8-8.3,0.2-16.8,0.2-25.2c-3.2,3.2-6.4,6.4-9.6,9.5c2.9-3.6,5.8-7.2,8.6-10.9
	c0.5-0.7,1.2-1.7,1.1-2.4c-1-6.4-2.7-12.6-6.3-18c-1.3-2.1-2.7-2-4,0.2c-3,4.9-5.9,9.9-8.6,15c-1.1,2.1-1.2,4.3,0.8,6.4
	c1.6,1.6,2.7,3.8,4.1,5.7C487.5,172.1,488.9,173.7,490.2,175.3z M309.6,222.8c2.8-2.5,5.1-5,7.7-6.9c3.4-2.5,5-5.9,6.4-9.6
	c0.7-1.8,1.4-3.7,2.6-5.2c1.9-2.4,2.7-4.8,2.4-7.9c-0.2-1.5,0.5-3.4,1.4-4.7c3.9-6.1,8.2-12,12-18.1c2.3-3.6,3.4-7.8,3.3-12.5
	c-4.2,0.9-8.3,0.1-11.8,2.8c-6.7,5.3-11.2,11.8-12.1,20.4c-0.5,4.9-2.7,8.8-6.8,11.7c-2.8,1.9-4.5,4.7-4.8,8.2
	c-0.4,3.9-0.7,7.8-0.7,11.8C309,216,309.4,219.3,309.6,222.8z M547.4,227.5c-0.4,0.3-0.8,0.5-1.2,0.8c-1.5-2.6-2.7-5.5-4.6-7.7
	c-1.9-2.2-4.6-3.9-6.9-5.7c-0.3,0.1-0.5,0.3-0.8,0.4c-0.2,2.9-0.7,5.8-0.3,8.6c0.2,2.1,1,4.7,2.4,6c4,3.7,5.4,8.1,5.3,13.3
	c0,3.3,0,6.5,0,9.8c0.4,0,0.8,0.1,1.2,0.1c1.7-7.6,3.5-15.2,5.2-22.8c0,0,0.4,0.3,0.9,0.6c1.4-2.1,2.6-4.2,4-6.1
	c1.4-2,3.2-3.7,4.5-5.7c1.3-2.1,2.6-4.3,3.4-6.6c1.1-3.3,0.2-4.8-2.7-6.8c-5.6-3.9-12.1-5-18.5-6.4c-0.3,4.4-1.1,8.5-4,12.1
	c-0.4,0.4-0.1,2,0.4,2.5c1.5,1.6,3.5,2.9,4.8,4.6C543.1,221.2,545.2,224.4,547.4,227.5z M503.4,172.1c-0.2,0-0.5,0-0.7-0.1
	c0,3.6-0.1,7.3,0,10.9c0.2,3.3,0.1,6.7,1.2,9.7c3.2,8.8,3.9,17.7,2.4,26.8c-0.1,0.8-0.1,1.8,0.3,2.3c3.8,5.1,7.7,10.1,11.4,15
	c-0.1,0.2,0-0.1,0.1-0.4c1.3-7.1,2.7-14.1,3.9-21.2c0.2-1.4,0.4-2.9,0-4.1c-1.8-4.6-3.7-9.1-5.9-13.6c-1.8-3.7-4.3-7-6.1-10.6
	C507.6,182.1,505.6,177.1,503.4,172.1z M556.9,155.2c2.7,9.9,1.5,19.6,0.4,29.3c-0.2,2.4,0.1,4.9,0.6,7.2c0.8,4.5,3.7,7.2,8,8.8
	c0.1-4.4,0-8.5,2.5-12.3c3.3-5,5.8-10.4,6-16.6c0.3-7-0.1-11.3-7.9-13.6C563.5,157.1,560.5,156.2,556.9,155.2z M525.4,166.8
	c-4.4,7.3-5.6,15.1-3.5,23.3c1,3.8,2,7.6,2.8,11.4c0.9,4.7,3.2,8.3,7.8,10c3-4.8,5-9.6,2.8-15.6c-1.5-4-0.9-8.4,0.4-12.7
	c0.6-2.2,0.4-5-0.3-7.3C533.9,171.2,529.7,168.8,525.4,166.8z M316.2,268.9c2.3-4.9,4-9.6,6.6-13.8c2.1-3.3,2.1-6.3,0.5-9.5
	c-1.5-2.9-3.2-5.6-4.9-8.4c-3.2-5.3-4.2-10.9-2.1-16.9c0.2-0.6,0.3-1.2,0.4-1.8c-0.3-0.2-0.5-0.4-0.8-0.5c-2,2.3-4.7,4.2-5.8,6.9
	c-1.6,3.9-2.6,8.2-3.1,12.4C305.6,249,309.9,259.1,316.2,268.9z M365.5,237.2c3.3-4.6,6.3-9,4.8-15.1c-1.1-4.4-0.6-8.7,2.1-12.6
	c2.4-3.5,4.4-7.2,1.2-11.4c-0.5-0.7-0.5-1.8-0.6-2.7c-0.4-4-0.8-8-1.3-13c-3.1,5.2-6.7,9.4-8.5,14.4
	C358.5,210.3,361,223.8,365.5,237.2z M460.2,142.2c1.5,6.4,2.8,12.2,4.2,18.1c0.6,2.5,1.3,5.1,2,7.5c0.9,3,1.4,6.3,3,8.9
	c4.2,6.9,9,13.6,13.5,20.4c0.3-3.1,0.9-6.4,0.9-9.8c0.1-5.4-1.3-10.5-4.6-15c-3.4-4.6-6.9-9.2-8.7-14.8
	C468.6,151.7,465.7,146.3,460.2,142.2z M523.3,166.2c-4.6-1-7.9-3.5-10.4-7.2c-0.9-1.3-1.4-2.9-2.5-4c-0.6-0.6-2.7-1.1-2.9-0.7
	c-1.5,1.9-3,3.8-2.8,6.7c0.8,10.4,4.4,19.7,9.7,28.6c2,3.4,4,6.9,5.7,10.5c1.4,3,2.4,6.3,3.6,9.4c0.3-4-1-7.8-2.5-11.4
	c-2.9-7.1-5.1-14.3-1.8-22C520.7,173,521.9,169.7,523.3,166.2z M470.8,92.2c0,5.8,0.1,11.3,0,16.8c-0.1,4.5,0.4,8.8,4.1,12
	c0.5,0.4,0.9,1,1.1,1.6c1.3,3.7,2.5,7.4,3.7,10.8c1.3-1.6,3.2-3.7,4.9-5.8c0.3-0.4,0.4-1.2,0.4-1.8c0-3.9,0-7.8-0.2-11.7
	c-0.2-3.4-0.2-7-1.3-10.2C481.5,97.8,476.8,94.2,470.8,92.2z M376.5,201.7c8.1-10.5,14.1-21.2,10.1-34c0,0.3-0.2,1.2-0.3,1.7
	c-1.1-7-2.3-14.2-3.5-21.4c-1.1,1.5-2,3.1-2.3,4.8c-0.6,3.7-0.5,7.5-1.2,11.2c-1.3,6.7-2.9,13.3-4.4,20
	C373.5,190,374.4,195.7,376.5,201.7z M512.8,124.8c2.9,6.7,21.5,27.5,26.3,29.5c0.4-1,0.7-2.1,1.3-3.1c2.4-4.2,2.3-8.8,0.8-13.1
	c-0.8-2.2-2.8-4.6-4.9-5.6c-4.5-2.2-9.4-3.5-14.2-5.1C519.1,126.5,516,125.8,512.8,124.8z M331.8,227.4c3.9-2.9,7.5-5.5,11-8.2
	c0.6-0.5,0.8-1.6,1-2.4c0.7-3,1.3-6.1,2-9.2c0.5-1.9,1.8-3.6,0.4-5.8c-2.4-3.6-4.5-7.4-6.9-11.3c-1.8,1.6-3.6,3.4-5.6,4.9
	c-2.1,1.5-2.2,3.2-1.4,5.3c1.3,3.5,1.1,6.9,0,10.5C330.6,216.5,330.9,221.9,331.8,227.4z M351.3,211.1c1-2,1.9-3.4,2.4-4.9
	c0.9-3.2,1.6-6.5,2.4-9.8c1.5-6.6,5.3-11.6,10.2-16.1c3.7-3.4,6-7.6,6.8-12c-5.3,1.8-10.4,3.7-15.6,5.4c-5.4,1.8-7.9,4.7-7.9,9.9
	c0,1.7,0.4,3.3,0.7,5c0.8,5.1,1.4,10.2-1,15.2c-0.2,0.5-0.1,1.2,0.1,1.8C349.8,207.2,350.4,208.7,351.3,211.1z M524.7,163.3
	c3.4-6.9,3.9-14-0.6-20.3c-3.5-5-8.4-9-13.2-14c-0.5,7.5-0.9,14.3-1.3,20.7c2,2.5,4.5,5.1,6.4,8.1
	C518.1,161.2,521,162.7,524.7,163.3z M330.4,152.1c-3.4,2-7.6,1.2-8.5,5.6c-0.9,4-3.5,6.6-6.6,9c-4.2,3.2-7.1,7.3-6.6,12.8
	c0.4,4.8,1.3,9.6,1.9,14.3c6.7-3.7,8.8-9.5,9.8-16.4c0.6-3.7,1.9-8,4.4-10.7C328.5,162.6,329,157.8,330.4,152.1z M329.5,200.7
	c-0.3-0.1-0.6-0.2-0.9-0.3c-1.4,3.1-2.8,6.2-4.2,9.2c-0.4,0.9-0.7,2-1.3,2.8c-5.2,6.6-7.1,13.8-3.9,21.7c1.7,4.1,3.9,8,5.9,12
	c0.2-0.1,0.5-0.2,0.7-0.3c0-0.9,0-1.9,0-2.8c-0.1-4.2,0.2-8.3,3-11.7c1.5-1.8,0.8-3.6,0.7-5.5c-0.3-4.2-1.1-8.5-0.2-12.5
	C330.3,209,330.3,204.9,329.5,200.7z M387.7,202.9c0.8-1.1,1.8-2.5,2.7-4c2.5-4.2,4.6-8.8,7.7-12.5c6.2-7.5,3.7-15.1,1.4-23.1
	c-3,3.6-5.8,6.8-8.5,10.1c-0.7,0.8-1,2-1.1,3.1c-0.3,3.1-0.4,6.1-0.6,9.2C388.8,191.4,388.3,197.2,387.7,202.9z M461,161.8
	c-0.9,5.9-4.1,10.2-8.1,13.7c-1.3,1.1-1.2,2-0.9,3.4c0.7,2.7,1.2,5.5,1.8,8.2c0.2,0.7,0.2,1.6,0.6,2.1c2.1,2.8,4.4,5.5,6.6,8.3
	C464.8,191.6,464.9,168.6,461,161.8z M445.3,146.1c-3.5,10.7,0.2,19.7,5.3,28.1c0.5-0.4,1-0.6,1.4-1c7.2-6.2,7.8-9,3.8-17.7
	c0-0.1,0-0.2-0.1-0.3c-1.2-1.9-2-4.1-3.6-5.4C450.3,148.3,447.7,147.4,445.3,146.1z M397.3,213.7c0.6-1,0.8-1.5,1.2-1.9
	c4.2-4.9,5.5-11,6.1-17.1c0.5-4.9,1.4-9.6,3.7-14c0.2-0.4,0.4-1.2,0.2-1.5c-1-1.8-2.2-3.5-3.3-5.2c0.3,5.4-1.8,9.2-5,13.2
	C392.2,197.1,392.1,202.1,397.3,213.7z M553.4,179.6c-3,2.5-6.8,5.4-10.3,8.5c-3.7,3.2-2.9,8.3,1.6,10.2c4.9,2.1,9.9,4.1,14,5.9
	C557.1,196.4,555.2,187.8,553.4,179.6z M340.9,186.1c0.7-0.6,1.2-1,1.6-1.5c5.3-6.4,10.6-12.7,15.8-19.1c2.3-2.8,4.2-9.2,3.7-12.1
	c-0.8,0.4-1.5,0.7-2.2,1.1c-2.2,1.3-4.5,2.5-6.4,4.1c-5.1,4.4-7.1,11.1-11.3,16.1C339.1,178.3,339.1,181.8,340.9,186.1z
	 M420.9,174.3c1.9,4.4,3.7,8.8,5.5,13.2c9.9-3,12-17,4.8-25.8C429.7,166.7,430.5,166.5,420.9,174.3z M382.3,111.5
	c-7.6,8-18.2,13.6-21.2,26.3c2.6-1.3,4.6-2.2,6.6-3.3c3.4-2,7.3-3.6,10.1-6.2C382.6,123.7,382.1,117.4,382.3,111.5z M375.5,147.3
	c-0.2-0.2-0.5-0.4-0.7-0.7c-2.3,0.8-4.7,1.7-7,2.5c-1.9,0.7-2.7,1.9-2.7,4c0,4.7-0.9,9.3-3.9,13.2c-1.7,2.3-3.7,4.4-6,7
	c4.5-1.7,8.8-2.9,12.6-4.9c2.8-1.4,5.5-3.4,5.4-7.2C373,156.4,372.8,151.6,375.5,147.3z M448,111.9c-1,2.7-2.1,5.5-3.1,8.4
	c-1.6,4.6-1,6.2,3,9.1c0.5,0.3,0.9,0.7,1.3,1.1c3,2.6,6,5.2,9.2,8.1c1.3-6.1,1.2-11.2-2.8-15.9C452.9,119.3,450.7,115.7,448,111.9z
	 M539.9,159c-2.1,4.8-3.1,9.3-2,14.2c0.4,1.9-0.1,4.1-0.3,6.1c-0.3,3-0.6,5.9-0.8,8.4c3.1-2.9,6-5.8,9.2-8.4c3-2.5,3.5-3.8,2.3-7.6
	C546.7,166.8,543.5,162.9,539.9,159z M506.5,150.2c0.6-1.5,0.9-2.1,0.9-2.6c0.1-6.9,0.4-13.9,0-20.8c-0.2-3.1-2.8-5.5-5.6-7.4
	c0,2.8,0.3,5.2-0.1,7.5c-0.5,2.6-1.8,5.1-2.3,7.8c-0.5,3.1-1.4,6.7-0.3,9.3C500.3,146.4,503.7,147.9,506.5,150.2z M485.4,128.8
	c-2.5,3.7-6.7,6-7,10.6c-0.4,5.3-0.3,10.6-0.3,15.9c0,1.3,0.5,2.5,0.8,3.8c2.4-4.3,4.8-8.3,7-12.5c1-1.9,2-3.8,2.5-5.8
	C489.3,136.6,488.1,132.8,485.4,128.8z M422.6,150.9c-1.4,1.2-2.9,2.3-4.2,3.7c-2,2.1-5.3,3.3-5,6.9c0.4,4.2,2.7,7.5,5.5,10.7
	c1.7-1.3,3.3-2.3,4.6-3.7c3.6-3.8,5.7-7.3,3-11.9C425.3,154.5,423.7,152.5,422.6,150.9z M386.6,163.1c0.7-6.1,2-12,6.5-16.4
	c2.9-2.8,4.8-6,6.1-9.8c1.3-3.5,2.9-6.8,4.4-10.1c-0.3-0.2-0.5-0.4-0.8-0.6c-5,5-9.9,10-14.9,14.9c-3,2.8-3.5,6.3-3.1,10
	C385.3,155.2,386,159.1,386.6,163.1z M399.8,110.5c0.3,0.1,0.5,0.3,0.8,0.4c7.2-6.8,16.2-11.5,21.7-20.4c-4.9,1-9.7,2.2-14.4,3.7
	c-3.7,1.2-6.8,3.4-7.5,7.5C399.8,104.6,399.9,107.6,399.8,110.5z M413.4,198.5c3.9-3.4,7.4-6.3,10.8-9.4c0.4-0.4,0.7-1.4,0.5-2
	c-1.1-4.1-2.8-8-5.8-11.3c-2,1.1-3.9,2-5.7,3.3c-0.7,0.5-1,1.7-1,2.6c0,3,0.2,6,0.4,8.9C412.8,193.2,413.1,195.7,413.4,198.5z
	 M380.7,131.4c0.4,0.2,0.8,0.4,1.2,0.7c1.9-3.2,4.2-6.3,5.7-9.7c1.9-4.3,4.4-7.8,9-9.3c2-0.6,2.4-1.9,2.4-3.8c-0.1-3.5,0-7,0-10.9
	c-3.8,2.1-7.1,4.7-8.7,8.3C386.7,114.9,383.8,123.2,380.7,131.4z M409.2,134.2c-2.9,4-8.6,6-8.5,12.6c0,5.1,2,14.5,4.3,16.5
	c0.1-5.7,2.1-10.6,5.7-14.9c0.6-0.8,1.2-2,1-2.9C411,141.7,410.1,138.1,409.2,134.2z M445,94.2c-12.1,11-9.5,24.7-3.8,28.2
	C443.7,113.2,448.9,104.4,445,94.2z M431.2,136.1c-0.1,7,2.8,13,6.4,18.6c3.5,5.4,5.6,11.1,6.9,17.2c0.5,2.7,1.5,5.3,2.3,8.3
	c1.7-2.1,3-3.8,1.6-6.2c-1.1-1.9-2.2-3.7-3.2-5.6c-2.4-4.9-4.5-9.9-3.6-15.5c0.4-2.8,1-5.5,1.5-8.3c-2-1.3-4.1-2.5-6-3.9
	C435,139.3,433.1,137.6,431.2,136.1z M347.6,132.9c-10.6,3.3-14.1,7.6-14.5,18.3c3.8-0.7,7.5-1.4,11.2-2.1c0.4-0.1,1-0.8,1.1-1.3
	C346.1,142.8,346.8,137.9,347.6,132.9z M549.9,175.5c4.5-4.7,1.2-25.9-4.4-31.3c-1.1,3.1-1.9,6.3-3.3,9.4c-1.1,2.4-0.2,3.6,1.2,5.6
	C547,163.8,550.7,168.6,549.9,175.5z M496.8,142c0.9-6.1,1.8-11.1,2.3-16.2c0.2-2.2,0.1-4.5-0.3-6.7c-0.4-2-1.4-3.9-2.1-5.9
	c-0.3,0-0.7,0.1-1,0.1c-0.2,5.1-1.9,9.4-6.3,12.3c-0.3,0.2-0.3,1.4,0,2C491.7,132.2,494.1,136.8,496.8,142z M427.8,101
	c-2.6,1.9-5.8,3.9-8.4,6.4c-2.9,2.7-5.8,5.6-7.7,9c-2.1,3.8-3,8.4-4.5,12.5c-0.7,1.9-1.7,3.6-2.6,5.4c1.3-0.8,2.1-1.8,2.6-3
	c2.2-4.7,4.8-9.1,9.4-12.2c2-1.4,4.2-3.1,5.4-5.2C424.3,109.8,426,105.1,427.8,101z M467.6,106.6c0-3.5,0.1-6.8,0-10.2
	c-0.1-2.7-1.3-4.9-4.1-5.4c-2.5-0.4-5.2-0.3-7.8-0.1c-0.6,0-1.5,1.4-1.6,2.1c-0.3,3.1,1.5,5.3,3.9,7
	C461.1,102.1,464.1,104.2,467.6,106.6z M536.1,172.4c0.6-4.8,1.2-9.7,1.7-14.7c0.1-0.5-0.2-1.1-0.5-1.5c-2.1-2-4.3-4-6.5-6
	c-1.4,4.7-2.7,9.1-3.9,13.4c-0.1,0.4,0.4,1.2,0.8,1.6C530.5,167.7,533.4,170.2,536.1,172.4z M412.7,149.5
	c-6.9,6.6-9.4,15.6-1.5,28.2c2-1.4,4-2.8,6.1-4.2c-1.5-1.6-2.6-3-3.8-4.3c-2.8-3.2-3.7-8.6-1.2-11.9
	C414.5,154.4,413.4,152.1,412.7,149.5z M456.2,102.9c2.7,7.6,6.2,14,12.1,19c2.2,1.9,4.3,4.1,6,6.5c1.4,2,2.1,4.6,3.3,7.1
	c0.6-4.6-0.1-8.3-3.3-11.6c-2.3-2.4-5-5.3-5.7-8.4C467.1,108.7,462.7,105.4,456.2,102.9z M443.3,142.2c0.6-7-0.3-9.6-4.7-14.2
	c-2-2.1-4-4.2-6-6.3C428.6,129.6,435.4,138.6,443.3,142.2z M389.7,170.8c8.2-7.2,9.2-11,6.6-24C390,152.7,388.2,160.1,389.7,170.8z
	 M504.4,218.2c2.2-8.4,0.8-20.6-2.8-24.9C496.3,203,497.5,213.3,504.4,218.2z M348.4,146.8c0.5-0.2,0.8-0.2,1-0.4
	c2.8-2.5,5.7-5,8.4-7.6c0.4-0.3,0.5-1,0.7-1.5c0.6-1.7,1.2-3.5,1.9-5.2c1-2.3,2.2-4.5,3.5-7.1C351.3,131.9,347.9,136.7,348.4,146.8z
	 M419.6,121.6c-8.1,3.1-9.3,14-5.8,22.7C419.8,137.8,419,129.6,419.6,121.6z M469.9,148.6c2.5-8-2.6-16.6-8.8-19.9
	c-0.2,3.4-0.5,6.7-0.6,10.1c0,0.7,0.6,1.5,1.2,2.1C464.4,143.5,467.2,146.1,469.9,148.6z M376.1,132.7c-1,0.5-2.4,1.2-3.7,2
	c-1.5,0.8-2.9,1.6-4.3,2.5c-4.1,2.8-4.9,5.4-3.2,9.7c2.7-1.1,5.5-2.1,8.2-3.3c0.5-0.2,0.9-1,1.1-1.7
	C374.8,138.9,375.5,135.7,376.1,132.7z M387.5,189.3c-2.4,3.8-4.7,7.5-7.1,11.2c-2.5,4-2.6,4,0.2,7.9
	C386.4,206.9,388.4,196.2,387.5,189.3z M358.1,141.8c-6.3,1.8-10.8,8.3-9.7,13.9c1.7-0.4,3.5-0.6,5.2-1.1c0.7-0.2,1.9-0.6,2-1.2
	C356.5,149.7,357.2,145.8,358.1,141.8z M345.3,151c-4.4,0.3-8.6,0.6-12.9,0.9c-0.4,2.9-0.8,5.6-1.1,7.8c4.6-1.4,9.2-2.9,14-4.4
	C345.3,154.2,345.3,152.7,345.3,151z M347.6,201.8c0.2,0,0.4,0,0.5,0c0-6.1,0-12.1,0-18.2c-0.3,0-0.5-0.1-0.8-0.1
	c-1.9,2-3.8,4-5.9,6.2C343.4,193.5,345.5,197.6,347.6,201.8z M489,123.4c4.7-3.7,6.9-14.4,0-16.8C489,112.4,489,117.9,489,123.4z
	 M452.2,147.8c-2.3-5.3-2-11.1-6.7-15c0,2.6,0.4,4.9-0.1,7c-0.9,3.8,1.4,5.4,4,6.9C450.1,147.1,450.8,147.3,452.2,147.8z
	 M419.8,139.4c-2.6,4.7-7.1,8.5-4.1,14.3C420.4,150.7,421.7,146.3,419.8,139.4z M463.3,156.6c-0.3-1-0.6-2.1-1-3.1
	c-1.2-3.4-2.8-6.8-3.4-10.3c-0.5-2.7-1.9-3.2-4.4-3.4C454.7,146.9,459,151.7,463.3,156.6z M336.9,181c-1.8,4.8-5.8,8.2-5.4,13.5
	C340.6,187.9,339.7,189.5,336.9,181z M362.1,140.6c-0.4-0.1-0.8-0.3-1.2-0.4c-3.6,3.5-1.8,8.8-4,13.2c1.5-0.9,2.7-1.4,3.5-2.2
	c0.9-0.8,1.9-2,2-3C362.6,145.6,362.2,143.1,362.1,140.6z M377,205.8c-3.6,4.2-5.3,9.9-4.2,13.9c1.2-2.3,1.9-5,3.7-6.7
	C379.2,210.5,378.6,208.4,377,205.8z M323.9,153.2c6.8-1.9,7.7-3.1,7.3-9.6C327.1,145.5,325.7,149.2,323.9,153.2z M450.6,178.4
	c-3.3,3.6-2.4,4.5,2.5,8.8C452.3,184.1,451.5,181.4,450.6,178.4z M345.6,215.8c4.7-1.9,3.7-3.6,1.8-8.2
	C346.9,210.2,346.3,212.7,345.6,215.8z M347.8,158.1c-0.1,1.9-0.2,3.8-0.3,6.2c2-2.6,3.6-4.6,5.3-6.8
	C351,157.7,349.5,157.9,347.8,158.1z M444.3,204.2c0.3,0,0.7,0.1,1,0.1c0.4-2.9,0.8-5.8,1.2-8.7c-0.2,0-0.4-0.1-0.7-0.1
	C445.3,198.5,444.8,201.4,444.3,204.2z"/>
</svg>
